<svg width="14" height="15" viewBox="0 0 14 15" fill="none" xmlns="http://www.w3.org/2000/svg">
<path d="M7.65625 5.50003V4.15628H6.34375V5.50003H7.65625ZM7.65625 10.8438V6.84378H6.34375V10.8438H7.65625ZM2.28125 2.81253C3.59375 1.50003 5.16667 0.843781 7 0.843781C8.83333 0.843781 10.3958 1.50003 11.6875 2.81253C13 4.1042 13.6562 5.6667 13.6562 7.50003C13.6562 9.33336 13 10.9063 11.6875 12.2188C10.3958 13.5104 8.83333 14.1563 7 14.1563C5.16667 14.1563 3.59375 13.5104 2.28125 12.2188C0.989583 10.9063 0.34375 9.33336 0.34375 7.50003C0.34375 5.6667 0.989583 4.1042 2.28125 2.81253Z" fill="#959595"/>
</svg>
