<svg width="18" height="18" viewBox="0 0 18 18" fill="none" xmlns="http://www.w3.org/2000/svg">
<path d="M0.635445 10.5364L7.47862 17.3649C7.68082 17.5664 7.92081 17.7262 8.1849 17.8352C8.449 17.9442 8.73201 18.0002 9.01779 18C9.59495 17.9997 10.1483 17.7705 10.5562 17.3631C10.9641 16.9556 11.193 16.4031 11.1926 15.8272C11.1923 15.2513 10.9627 14.6991 10.5543 14.2921L9.55761 13.2975C9.38372 13.1231 9.26541 12.9013 9.21755 12.66C9.16969 12.4187 9.19443 12.1687 9.28865 11.9414C9.38287 11.714 9.54237 11.5196 9.74707 11.3825C9.95176 11.2455 10.1925 11.1719 10.439 11.171L15.8243 11.171C16.4013 11.171 16.9547 10.9423 17.3628 10.5351C17.7708 10.128 18 9.57579 18 9C18 8.42421 17.7708 7.872 17.3628 7.46486C16.9547 7.05772 16.4013 6.82898 15.8243 6.82898L10.439 6.82898C10.1925 6.82813 9.95177 6.75453 9.74707 6.61745C9.54237 6.48038 9.38287 6.28596 9.28865 6.05864C9.19443 5.83133 9.16969 5.58128 9.21755 5.33997C9.26541 5.09866 9.38372 4.87687 9.55761 4.7025L10.5543 3.70792C10.9627 3.30093 11.1923 2.74873 11.1926 2.17282C11.193 1.5969 10.9641 1.04443 10.5562 0.636947C10.1483 0.229465 9.59495 0.00034831 9.01779 1.1221e-06C8.44064 -0.000346066 7.88698 0.228101 7.47862 0.635091L0.635446 7.46359C0.228463 7.8718 8.37144e-07 8.42419 7.86805e-07 9C7.36466e-07 9.57581 0.228463 10.1282 0.635445 10.5364Z" fill="#103DDE"/>
</svg>
