<svg width="15" height="19" viewBox="0 0 15 19" fill="none" xmlns="http://www.w3.org/2000/svg">
<path d="M5.9273 15.2775C5.26896 15.2775 4.7334 15.77 4.7334 16.375C4.7334 16.98 5.26896 17.4725 5.9273 17.4725C6.58565 17.4725 7.12121 16.98 7.12121 16.375C7.12121 15.77 6.58565 15.2775 5.9273 15.2775ZM5.9273 16.8059C5.65386 16.8059 5.43093 16.6134 5.43093 16.375C5.43093 16.1367 5.65386 15.9442 5.9273 15.9442C6.20074 15.9442 6.42367 16.1367 6.42367 16.375C6.42367 16.6134 6.20161 16.8059 5.9273 16.8059Z" fill="#F7F7F7"/>
<path d="M5.9273 12.2225C5.26896 12.2225 4.7334 12.715 4.7334 13.32C4.7334 13.925 5.26896 14.4166 5.9273 14.4166C6.58565 14.4166 7.12121 13.9241 7.12121 13.32C7.12121 12.7141 6.58565 12.2225 5.9273 12.2225ZM5.9273 13.75C5.65386 13.75 5.43093 13.5575 5.43093 13.32C5.43093 13.0825 5.65386 12.8891 5.9273 12.8891C6.20074 12.8891 6.42367 13.0816 6.42367 13.32C6.42454 13.5566 6.20161 13.75 5.9273 13.75Z" fill="#F7F7F7"/>
<path d="M2.73096 12.2225C2.0639 12.2225 1.52051 12.715 1.52051 13.32C1.52051 13.925 2.0639 14.4166 2.73096 14.4166C3.39801 14.4166 3.94141 13.9241 3.94141 13.32C3.94141 12.7141 3.39801 12.2225 2.73096 12.2225ZM2.73096 13.75C2.45316 13.75 2.21804 13.5533 2.21804 13.32C2.21804 13.0825 2.44794 12.8891 2.73096 12.8891C3.01398 12.8891 3.24387 13.0816 3.24387 13.32C3.24387 13.5525 3.00962 13.75 2.73096 13.75Z" fill="#F7F7F7"/>
<path d="M2.73096 15.2775C2.0639 15.2775 1.52051 15.77 1.52051 16.375C1.52051 16.98 2.0639 17.4725 2.73096 17.4725C3.39801 17.4725 3.94141 16.98 3.94141 16.375C3.94141 15.77 3.39801 15.2775 2.73096 15.2775ZM2.73096 16.8059C2.45316 16.8059 2.21804 16.6092 2.21804 16.375C2.21804 16.1409 2.45316 15.9442 2.73096 15.9442C3.00875 15.9442 3.24387 16.1409 3.24387 16.375C3.24387 16.6092 3.00962 16.8059 2.73096 16.8059Z" fill="#F7F7F7"/>
<path d="M4.32196 2.19499H10.78C10.9725 2.19499 11.1283 2.04499 11.1283 1.86165C11.1283 1.67832 10.9716 1.52832 10.78 1.52832H4.32196C4.12951 1.52832 3.97363 1.67832 3.97363 1.86165C3.97363 2.04499 4.12951 2.19499 4.32196 2.19499Z" fill="#F7F7F7"/>
<path d="M12.2904 3.05499H2.74357C2.07216 3.05499 1.52441 3.57916 1.52441 4.22166V7.13833C1.52441 7.78083 2.07216 8.30499 2.74357 8.30499H12.2904C12.9619 8.30499 13.5096 7.78083 13.5096 7.13833V4.22166C13.5096 3.57916 12.9619 3.05499 12.2904 3.05499ZM12.8129 7.13833C12.8129 7.41416 12.5787 7.63833 12.2904 7.63833H2.74357C2.45533 7.63833 2.22108 7.41416 2.22108 7.13833V4.22166C2.22108 3.94583 2.45533 3.72166 2.74357 3.72166H12.2904C12.5787 3.72166 12.8129 3.94583 12.8129 4.22166V7.13833Z" fill="#F7F7F7"/>
<path d="M13.4758 10.2634C13.4758 9.65835 12.9481 9.16669 12.2985 9.16669C11.6488 9.16669 11.1211 9.65919 11.1211 10.2634C11.1211 10.8692 11.6488 11.3609 12.2985 11.3609C12.9481 11.3609 13.4758 10.8692 13.4758 10.2634ZM11.8195 10.2634C11.8195 10.0267 12.0346 9.83335 12.2993 9.83335C12.5641 9.83335 12.7791 10.0259 12.7791 10.2634C12.7791 10.5009 12.5641 10.6942 12.2993 10.6942C12.0346 10.6942 11.8195 10.5009 11.8195 10.2634Z" fill="#F7F7F7"/>
<path d="M14.616 0.965L14.1039 0.44L13.9994 0.370833C13.5152 0.163333 12.721 0 12.1916 0H2.80929C2.27983 0 1.48476 0.163333 1.00145 0.370833L0.455443 0.865833L0.384905 0.965C0.16894 1.42833 0 2.18833 0 2.695V16.3058C0 16.8125 0.16894 17.5725 0.384905 18.0358L0.897823 18.56L1.00145 18.6292C1.48563 18.8367 2.27983 19 2.80929 19H12.1907C12.7202 19 13.5152 18.8367 13.9985 18.6292L14.5437 18.135L14.6151 18.0358C14.8311 17.5717 15 16.8125 15 16.3058V2.695C15.0009 2.18833 14.8319 1.42833 14.616 0.965ZM14.3042 16.3058C14.3042 16.7 14.1692 17.3258 14.0038 17.7108L13.6572 18.0442C13.2557 18.2033 12.6035 18.3333 12.1916 18.3333H2.80929C2.39739 18.3333 1.74514 18.2042 1.34369 18.0442L0.997097 17.7108C0.832511 17.3258 0.696661 16.7 0.696661 16.3058V2.695C0.696661 2.30083 0.83164 1.675 0.997097 1.29L1.34369 0.955833C1.74601 0.796667 2.39826 0.666667 2.80929 0.666667H12.1907C12.6026 0.666667 13.2549 0.795833 13.6563 0.955833L14.0029 1.29C14.1675 1.675 14.3033 2.30083 14.3033 2.695L14.3042 16.3058Z" fill="#F7F7F7"/>
<path d="M12.3161 12.2225C11.6586 12.2225 11.123 12.7466 11.123 13.3891V16.3058C11.123 16.9483 11.6586 17.4725 12.3161 17.4725C12.9736 17.4725 13.5091 16.9483 13.5091 16.3058V13.3891C13.5091 12.7466 12.9736 12.2225 12.3161 12.2225ZM12.8125 16.3058C12.8125 16.5816 12.5904 16.8058 12.317 16.8058C12.0435 16.8058 11.8215 16.5816 11.8215 16.3058V13.3891C11.8215 13.1133 12.0435 12.8891 12.317 12.8891C12.5904 12.8891 12.8125 13.1133 12.8125 13.3891V16.3058Z" fill="#F7F7F7"/>
<path d="M9.12267 12.2225C8.4739 12.2225 7.94531 12.715 7.94531 13.32C7.94531 13.925 8.47303 14.4166 9.12267 14.4166C9.77231 14.4166 10.3 13.9241 10.3 13.32C10.3 12.7141 9.77144 12.2225 9.12267 12.2225ZM9.12267 13.75C8.85794 13.75 8.64285 13.5575 8.64285 13.32C8.64285 13.0825 8.85794 12.8891 9.12267 12.8891C9.3874 12.8891 9.6025 13.0816 9.6025 13.32C9.6025 13.5566 9.3874 13.75 9.12267 13.75Z" fill="#F7F7F7"/>
<path d="M9.12267 9.16669C8.4739 9.16669 7.94531 9.65919 7.94531 10.2634C7.94531 10.8692 8.47303 11.3609 9.12267 11.3609C9.77231 11.3609 10.3 10.8684 10.3 10.2634C10.3 9.65835 9.77144 9.16669 9.12267 9.16669ZM9.12267 10.6942C8.85794 10.6942 8.64285 10.5017 8.64285 10.2634C8.64285 10.0267 8.85794 9.83335 9.12267 9.83335C9.3874 9.83335 9.6025 10.0259 9.6025 10.2634C9.6025 10.5009 9.3874 10.6942 9.12267 10.6942Z" fill="#F7F7F7"/>
<path d="M9.12267 15.2775C8.4739 15.2775 7.94531 15.77 7.94531 16.375C7.94531 16.98 8.47303 17.4725 9.12267 17.4725C9.77231 17.4725 10.3 16.98 10.3 16.375C10.3 15.77 9.77144 15.2775 9.12267 15.2775ZM9.12267 16.8059C8.85794 16.8059 8.64285 16.6134 8.64285 16.375C8.64285 16.1367 8.85794 15.9442 9.12267 15.9442C9.3874 15.9442 9.6025 16.1367 9.6025 16.375C9.6025 16.6134 9.3874 16.8059 9.12267 16.8059Z" fill="#F7F7F7"/>
<path d="M5.9273 9.16669C5.26896 9.16669 4.7334 9.65919 4.7334 10.2634C4.7334 10.8692 5.26896 11.3609 5.9273 11.3609C6.58565 11.3609 7.12121 10.8684 7.12121 10.2634C7.12121 9.65835 6.58565 9.16669 5.9273 9.16669ZM5.9273 10.6942C5.65386 10.6942 5.43093 10.5017 5.43093 10.2634C5.43093 10.0267 5.65386 9.83335 5.9273 9.83335C6.20074 9.83335 6.42367 10.0259 6.42367 10.2634C6.42454 10.5009 6.20161 10.6942 5.9273 10.6942Z" fill="#F7F7F7"/>
</svg>
