<svg width="19" height="18" viewBox="0 0 19 18" fill="none" xmlns="http://www.w3.org/2000/svg">
<path d="M9.47702 0.0547485C4.71583 0.0547485 0.820312 3.95722 0.820312 8.76361C0.820312 13.1094 3.98867 16.7163 8.12657 17.3682V11.2841H5.92777V8.76361H8.12657V6.8428C8.12657 4.66123 9.41642 3.46181 11.3988 3.46181C12.3424 3.46181 13.3293 3.62695 13.3293 3.62695V5.77374H12.2385C11.1651 5.77374 10.8275 6.44299 10.8275 7.12962V8.76361H13.234L12.8445 11.2841H10.8275V17.3682C12.8674 17.0447 14.7249 15.9997 16.0647 14.4218C17.4045 12.8439 18.1384 10.8371 18.1337 8.76361C18.1337 3.95722 14.2382 0.0547485 9.47702 0.0547485Z" fill="#767676"/>
</svg>
