<svg width="19" height="18" viewBox="0 0 19 18" fill="none" xmlns="http://www.w3.org/2000/svg">
<path d="M18.0408 7.15143C18.1438 7.73245 18.1952 8.32113 18.1943 8.91085C18.1943 11.5446 17.2339 13.7714 15.5626 15.2787H15.5648C14.1033 16.6021 12.0942 17.3682 9.71199 17.3682C7.36983 17.3682 5.12359 16.4562 3.46744 14.8328C1.81128 13.2094 0.880859 11.0076 0.880859 8.71175C0.880859 6.41592 1.81128 4.21413 3.46744 2.59073C5.12359 0.967334 7.36983 0.0553197 9.71199 0.0553197C11.9042 0.030153 14.0214 0.837464 15.62 2.30816L13.0987 4.77957C12.1873 3.92796 10.971 3.46162 9.71199 3.4811C7.40817 3.4811 5.45097 5.00463 4.75331 7.05621C4.3834 8.13123 4.3834 9.29551 4.75331 10.3705H4.75662C5.45759 12.4189 7.41148 13.9424 9.7153 13.9424C10.9053 13.9424 11.9275 13.6438 12.7201 13.1157H12.7168C13.177 12.8168 13.5707 12.4297 13.874 11.9776C14.1774 11.5255 14.3842 11.0178 14.4819 10.4852H9.71199V7.15251L18.0408 7.15143Z" fill="#767676"/>
</svg>
