<svg width="24" height="24" viewBox="0 0 24 24" fill="none" xmlns="http://www.w3.org/2000/svg">
<path d="M17 11.5C15.9122 11.5 14.8488 11.8226 13.9444 12.4269C13.0399 13.0313 12.3349 13.8902 11.9187 14.8952C11.5024 15.9002 11.3935 17.0061 11.6057 18.073C11.8179 19.1399 12.3417 20.1199 13.1109 20.8891C13.8801 21.6583 14.8601 22.1821 15.927 22.3943C16.9939 22.6065 18.0998 22.4976 19.1048 22.0813C20.1098 21.6651 20.9687 20.9601 21.5731 20.0556C22.1774 19.1512 22.5 18.0878 22.5 17C22.4983 15.5418 21.9183 14.1439 20.8872 13.1128C19.8561 12.0817 18.4582 11.5017 17 11.5ZM19.384 15.8205L16.884 18.8205C16.8395 18.8738 16.7843 18.9173 16.7221 18.9481C16.6599 18.9789 16.5919 18.9964 16.5225 18.9995H16.5C16.3674 18.9995 16.2402 18.9468 16.1465 18.853L14.6465 17.353C14.5554 17.2587 14.505 17.1324 14.5062 17.0013C14.5073 16.8702 14.5599 16.7448 14.6526 16.6521C14.7453 16.5594 14.8707 16.5068 15.0018 16.5057C15.1329 16.5045 15.2592 16.5549 15.3535 16.646L16.4665 17.759L18.6165 15.179C18.6586 15.1286 18.7102 15.0869 18.7684 15.0564C18.8266 15.026 18.8902 15.0072 18.9556 15.0013C19.021 14.9954 19.087 15.0025 19.1497 15.0221C19.2123 15.0417 19.2706 15.0734 19.321 15.1155C19.3714 15.1576 19.4131 15.2092 19.4436 15.2674C19.474 15.3256 19.4928 15.3892 19.4987 15.4546C19.5046 15.52 19.4975 15.586 19.4779 15.6487C19.4583 15.7113 19.4266 15.7696 19.3845 15.82L19.384 15.8205Z" fill="#D9D9D9"/>
<path d="M8 8.113V8.121C8.10729 7.88858 8.27549 7.68954 8.48676 7.54499C8.69804 7.40045 8.9445 7.31579 9.2 7.3C9.49956 7.33082 9.7891 7.42516 10.0493 7.57674C10.3095 7.72831 10.5344 7.93363 10.709 8.179C10.7966 8.27805 10.8892 8.37251 10.9865 8.462C11.0455 8.397 11.123 8.294 11.179 8.2185C11.3226 7.96162 11.5267 7.74367 11.7736 7.5836C12.0206 7.42353 12.3029 7.32618 12.596 7.3C12.877 7.32989 13.1465 7.42736 13.3816 7.58409C13.6167 7.74082 13.8103 7.95215 13.946 8.2L13.996 8.2695V1.5H8V8.113Z" fill="#D9D9D9"/>
<path d="M18 1.5H15V8.27C14.9997 8.47904 14.9338 8.68271 14.8117 8.8524C14.6897 9.02209 14.5175 9.14925 14.3194 9.21601C14.1213 9.28278 13.9073 9.28579 13.7074 9.22462C13.5075 9.16346 13.3318 9.04119 13.205 8.875L13.15 8.8C12.915 8.49 12.76 8.3 12.595 8.3C12.38 8.3 12.21 8.505 11.98 8.815C11.8827 8.9987 11.743 9.15662 11.5726 9.27573C11.4022 9.39483 11.206 9.4717 11 9.5C10.7924 9.47164 10.5932 9.39946 10.4156 9.28826C10.2381 9.17706 10.0862 9.02937 9.97 8.855C9.72 8.585 9.46 8.3 9.2 8.3C9.125 8.3 9.045 8.325 8.85 8.64C8.73553 8.82472 8.56399 8.96711 8.36137 9.04564C8.15874 9.12417 7.93605 9.13456 7.72699 9.07523C7.51794 9.01591 7.3339 8.89009 7.20272 8.71684C7.07155 8.54358 7.00039 8.33231 7 8.115V1.5H4C3.33696 1.5 2.70107 1.76339 2.23223 2.23223C1.76339 2.70107 1.5 3.33696 1.5 4V19C1.5 19.663 1.76339 20.2989 2.23223 20.7678C2.70107 21.2366 3.33696 21.5 4 21.5H12.315C11.2119 20.3535 10.568 18.842 10.5052 17.2522C10.4424 15.6624 10.9652 14.1049 11.9745 12.875C12.9837 11.645 14.4092 10.8282 15.9806 10.5794C17.552 10.3305 19.1602 10.667 20.5 11.525V4C20.5 3.6717 20.4353 3.34661 20.3097 3.04329C20.1841 2.73998 19.9999 2.46438 19.7678 2.23223C19.5356 2.00009 19.26 1.81594 18.9567 1.6903C18.6534 1.56466 18.3283 1.5 18 1.5ZM8.5 18.5H5C4.86739 18.5 4.74021 18.4473 4.64645 18.3536C4.55268 18.2598 4.5 18.1326 4.5 18C4.5 17.8674 4.55268 17.7402 4.64645 17.6464C4.74021 17.5527 4.86739 17.5 5 17.5H8.5C8.63261 17.5 8.75979 17.5527 8.85355 17.6464C8.94732 17.7402 9 17.8674 9 18C9 18.1326 8.94732 18.2598 8.85355 18.3536C8.75979 18.4473 8.63261 18.5 8.5 18.5ZM8.5 16.5H5C4.86739 16.5 4.74021 16.4473 4.64645 16.3536C4.55268 16.2598 4.5 16.1326 4.5 16C4.5 15.8674 4.55268 15.7402 4.64645 15.6464C4.74021 15.5527 4.86739 15.5 5 15.5H8.5C8.63261 15.5 8.75979 15.5527 8.85355 15.6464C8.94732 15.7402 9 15.8674 9 16C9 16.1326 8.94732 16.2598 8.85355 16.3536C8.75979 16.4473 8.63261 16.5 8.5 16.5Z" fill="#D9D9D9"/>
</svg>
