<svg width="24" height="24" viewBox="0 0 24 24" fill="none" xmlns="http://www.w3.org/2000/svg">
<g clip-path="url(#clip0_1292_3767)">
<path d="M14.8 21.6V17.2596C14.5255 16.7568 14.1206 16.3374 13.6279 16.0453C13.1351 15.7533 12.5728 15.5994 12 15.6H10.76C10.6682 16.0521 10.4229 16.4586 10.0657 16.7505C9.7085 17.0425 9.26135 17.202 8.8 17.202C8.33866 17.202 7.89151 17.0425 7.5343 16.7505C7.1771 16.4586 6.93181 16.0521 6.84 15.6H5.6C5.10498 15.6003 4.61691 15.7165 4.1748 15.9392L14.1064 21.6H14.8ZM13.2 18.4H11.6C11.4939 18.4 11.3922 18.3578 11.3172 18.2828C11.2421 18.2078 11.2 18.1061 11.2 18C11.2 17.8939 11.2421 17.7921 11.3172 17.7171C11.3922 17.6421 11.4939 17.6 11.6 17.6H12C12 17.4939 12.0421 17.3921 12.1172 17.3171C12.1922 17.2421 12.2939 17.2 12.4 17.2C12.5061 17.2 12.6078 17.2421 12.6828 17.3171C12.7579 17.3921 12.8 17.4939 12.8 17.6H13.2C13.3061 17.6 13.4078 17.6421 13.4828 17.7171C13.5579 17.7921 13.6 17.8939 13.6 18C13.6 18.1061 13.5579 18.2078 13.4828 18.2828C13.4078 18.3578 13.3061 18.4 13.2 18.4Z" fill="#103DDE"/>
<path d="M17.2402 15.6C17.2993 15.8804 17.4178 16.1448 17.588 16.3754C17.7581 16.6059 17.9757 16.7973 18.2262 16.9364C18.1016 16.5011 18.0296 16.0524 18.0118 15.6H17.2402Z" fill="#103DDE"/>
<path d="M20.1738 13.4636C20.2986 13.8989 20.3707 14.3476 20.3886 14.8H21.1602C21.1012 14.5196 20.9825 14.2552 20.8123 14.0246C20.6421 13.794 20.4244 13.6027 20.1738 13.4636Z" fill="#103DDE"/>
<path d="M12.4903 21.6L3.44311 16.4432C3.19643 16.6684 2.98632 16.9306 2.82031 17.2204L10.5059 21.6H12.4903Z" fill="#103DDE"/>
<path d="M18.8116 14.8001H19.5884C19.5927 14.2545 19.4591 13.7166 19.2 13.2365C18.941 13.7166 18.8074 14.2545 18.8116 14.8001Z" fill="#103DDE"/>
<path d="M20.1738 16.9364C20.4244 16.7973 20.6421 16.606 20.8123 16.3754C20.9825 16.1448 21.1012 15.8804 21.1602 15.6H20.3886C20.3707 16.0524 20.2986 16.5011 20.1738 16.9364Z" fill="#103DDE"/>
<path d="M19.2 17.1636C19.4591 16.6834 19.5927 16.1456 19.5884 15.6H18.8116C18.8074 16.1456 18.941 16.6834 19.2 17.1636Z" fill="#103DDE"/>
<path d="M17.2402 14.8H18.0114C18.0293 14.3476 18.1014 13.8989 18.2262 13.4636C17.9757 13.6027 17.7581 13.7941 17.588 14.0246C17.4178 14.2552 17.2993 14.5196 17.2402 14.8Z" fill="#103DDE"/>
<path d="M2.5139 17.9668C2.43925 18.2383 2.40092 18.5184 2.3999 18.8V21.6H8.8899L2.5139 17.9668Z" fill="#103DDE"/>
<path d="M2.7998 8.00006C2.80083 8.24736 2.87824 8.48831 3.02144 8.68994C3.16464 8.89156 3.36664 9.04402 3.5998 9.12646V6.87366C3.36664 6.95609 3.16464 7.10855 3.02144 7.31018C2.87824 7.51181 2.80083 7.75275 2.7998 8.00006Z" fill="#103DDE"/>
<path d="M14 6.87366V9.04006C14 9.06886 13.9964 9.09726 13.9956 9.12606C14.2294 9.04497 14.4323 8.89315 14.576 8.69165C14.7197 8.49014 14.7971 8.24892 14.7976 8.00142C14.7981 7.75392 14.7216 7.5124 14.5787 7.31033C14.4358 7.10827 14.2335 6.95566 14 6.87366Z" fill="#103DDE"/>
<path d="M22.8001 20.8V12C22.8001 11.7878 22.7158 11.5843 22.5658 11.4343C22.4158 11.2842 22.2123 11.2 22.0001 11.2H15.6001V21.6H22.0001C22.2123 21.6 22.4158 21.5157 22.5658 21.3656C22.7158 21.2156 22.8001 21.0121 22.8001 20.8ZM20.4001 19.6H18.0001C17.894 19.6 17.7923 19.5578 17.7173 19.4828C17.6422 19.4078 17.6001 19.306 17.6001 19.2C17.6001 19.0939 17.6422 18.9921 17.7173 18.9171C17.7923 18.8421 17.894 18.8 18.0001 18.8H20.4001C20.5062 18.8 20.6079 18.8421 20.6829 18.9171C20.758 18.9921 20.8001 19.0939 20.8001 19.2C20.8001 19.306 20.758 19.4078 20.6829 19.4828C20.6079 19.5578 20.5062 19.6 20.4001 19.6ZM19.2001 18C18.6463 18 18.105 17.8357 17.6445 17.5281C17.184 17.2204 16.8252 16.7831 16.6132 16.2715C16.4013 15.7598 16.3459 15.1968 16.4539 14.6537C16.5619 14.1106 16.8286 13.6116 17.2202 13.2201C17.6118 12.8285 18.1107 12.5618 18.6538 12.4538C19.197 12.3457 19.76 12.4012 20.2716 12.6131C20.7832 12.825 21.2205 13.1839 21.5282 13.6444C21.8359 14.1048 22.0001 14.6462 22.0001 15.2C21.9991 15.9423 21.7038 16.6539 21.1789 17.1788C20.654 17.7037 19.9424 17.999 19.2001 18Z" fill="#103DDE"/>
<path d="M22.7998 22.4H1.1998C1.09372 22.4 0.991977 22.4422 0.916962 22.5172C0.841947 22.5922 0.799805 22.6939 0.799805 22.8C0.799805 22.9061 0.841947 23.0079 0.916962 23.0829C0.991977 23.1579 1.09372 23.2 1.1998 23.2H22.7998C22.9059 23.2 23.0076 23.1579 23.0826 23.0829C23.1577 23.0079 23.1998 22.9061 23.1998 22.8C23.1998 22.6939 23.1577 22.5922 23.0826 22.5172C23.0076 22.4422 22.9059 22.4 22.7998 22.4Z" fill="#103DDE"/>
<path d="M12.8085 6.80005H4.79248C5.32728 7.31325 6.47448 8.00005 8.80008 8.00005C11.1257 8.00005 12.2733 7.31285 12.8085 6.80005Z" fill="#103DDE"/>
<path d="M7.6001 14.256V15.2C7.6001 15.5182 7.72653 15.8235 7.95157 16.0485C8.17661 16.2736 8.48184 16.4 8.8001 16.4C9.11836 16.4 9.42358 16.2736 9.64863 16.0485C9.87367 15.8235 10.0001 15.5182 10.0001 15.2V14.2516C9.63829 14.3423 9.26743 14.3921 8.8945 14.4H8.8001C8.39587 14.3986 7.99317 14.3503 7.6001 14.256Z" fill="#103DDE"/>
<path d="M14.0482 4.00325C14.2611 3.78844 14.3865 3.50217 14.4002 3.20005C14.4002 1.78565 11.449 0.800049 8.8002 0.800049C6.1514 0.800049 3.2002 1.78565 3.2002 3.20005C3.21376 3.50208 3.33923 3.78825 3.5522 4.00285C4.05396 4.55212 4.35142 5.25735 4.3946 6.00005H13.2058C13.2488 5.25742 13.5463 4.55226 14.0482 4.00325ZM11.6002 4.80005H6.0002C5.89411 4.80005 5.79237 4.75791 5.71735 4.68289C5.64234 4.60788 5.6002 4.50614 5.6002 4.40005C5.6002 4.29396 5.64234 4.19222 5.71735 4.11721C5.79237 4.04219 5.89411 4.00005 6.0002 4.00005H11.6002C11.7063 4.00005 11.808 4.04219 11.883 4.11721C11.9581 4.19222 12.0002 4.29396 12.0002 4.40005C12.0002 4.50614 11.9581 4.60788 11.883 4.68289C11.808 4.75791 11.7063 4.80005 11.6002 4.80005Z" fill="#103DDE"/>
<path d="M13.1999 9.04003V7.51562C12.4827 8.12642 11.1599 8.80003 8.7999 8.80003C6.4399 8.80003 5.1171 8.12642 4.3999 7.51562V9.20003C4.3999 10.367 4.86347 11.4861 5.68863 12.3113C6.51379 13.1365 7.63295 13.6 8.7999 13.6H8.8799C10.0521 13.5524 11.1594 13.0492 11.9662 12.1976C12.773 11.3459 13.2157 10.2131 13.1999 9.04003ZM10.7599 11.3772C10.5584 11.711 10.269 11.983 9.92328 12.1634C9.5776 12.3438 9.18898 12.4256 8.7999 12.4C8.41132 12.4254 8.02322 12.3436 7.67794 12.1635C7.33267 11.9834 7.04347 11.712 6.8419 11.3788C6.79944 11.2849 6.79492 11.1781 6.82927 11.0809C6.86362 10.9837 6.93419 10.9034 7.02626 10.857C7.11832 10.8106 7.22477 10.8015 7.32338 10.8316C7.422 10.8618 7.50515 10.9288 7.5555 11.0188C7.69269 11.2174 7.88026 11.3759 8.09895 11.478C8.31763 11.5802 8.55957 11.6223 8.7999 11.6C9.0406 11.6224 9.28291 11.5801 9.50176 11.4774C9.72061 11.3747 9.90805 11.2154 10.0447 11.016C10.0941 10.9227 10.1783 10.8526 10.2791 10.8212C10.3799 10.7897 10.489 10.7994 10.5827 10.848C10.6763 10.8952 10.7475 10.9775 10.7806 11.0769C10.8138 11.1764 10.8064 11.2849 10.7599 11.3788V11.3772Z" fill="#103DDE"/>
</g>
<defs>
<clipPath id="clip0_1292_3767">
<rect width="24" height="24" fill="white"/>
</clipPath>
</defs>
</svg>
