<svg width="24" height="24" viewBox="0 0 24 24" fill="none" xmlns="http://www.w3.org/2000/svg">
<path d="M20.9313 8.81859H19.1958L14.424 5.49145C14.7733 4.18823 14.0531 2.86997 12.8371 2.43398V0.837188C12.8371 0.374859 12.4623 0 11.9999 0C11.5376 0 11.1627 0.374859 11.1627 0.837188V2.43398C9.94582 2.87034 9.22676 4.18941 9.57588 5.49155L4.8041 8.81859H3.06851C1.99198 8.81859 1.11621 9.69436 1.11621 10.7709V22.0476C1.11621 23.1242 1.99198 24 3.06851 24H20.9313C22.0078 24 22.8836 23.1242 22.8836 22.0477V10.7709C22.8836 9.69436 22.0079 8.81859 20.9313 8.81859ZM7.5348 18.7535C7.5348 19.2158 7.15995 19.5907 6.69762 19.5907C6.23524 19.5907 5.86043 19.2158 5.86043 18.7535V14.0651C5.86043 13.6027 6.23529 13.2279 6.69762 13.2279C7.15999 13.2279 7.5348 13.6028 7.5348 14.0651V18.7535ZM12.8371 18.7535C12.8371 19.2158 12.4623 19.5907 11.9999 19.5907C11.5376 19.5907 11.1627 19.2158 11.1627 18.7535V14.0651C11.1627 13.6027 11.5376 13.2279 11.9999 13.2279C12.4623 13.2279 12.8371 13.6028 12.8371 14.0651V18.7535ZM7.73173 8.81859L10.5175 6.87619C11.3895 7.52311 12.5887 7.53919 13.4824 6.87619L16.2681 8.81859H7.73173ZM18.1395 18.7535C18.1395 19.2158 17.7646 19.5907 17.3023 19.5907C16.8399 19.5907 16.4651 19.2158 16.4651 18.7535V14.0651C16.4651 13.6027 16.84 13.2279 17.3023 13.2279C17.7647 13.2279 18.1395 13.6028 18.1395 14.0651V18.7535Z" fill="#D9D9D9"/>
</svg>
