<svg width="18" height="18" viewBox="0 0 18 18" fill="none" xmlns="http://www.w3.org/2000/svg">
<path d="M9.54664 0.0558136C10.1783 0.0533896 10.81 0.0597383 11.4415 0.0748578L11.6094 0.0809173C11.8033 0.0878424 11.9946 0.0964988 12.2258 0.106887C13.1468 0.150169 13.7752 0.295597 14.3266 0.50941C14.8979 0.729283 15.3792 1.02706 15.8605 1.50836C16.3006 1.94084 16.6412 2.46398 16.8586 3.04141C17.0724 3.59283 17.2178 4.22215 17.2611 5.14319C17.2715 5.37345 17.2802 5.56563 17.2871 5.75953L17.2923 5.92746C17.3076 6.55868 17.3143 7.19009 17.3122 7.82149L17.313 8.46726V9.60125C17.3152 10.2329 17.3085 10.8646 17.2931 11.4961L17.2879 11.6641C17.281 11.858 17.2724 12.0493 17.262 12.2804C17.2187 13.2015 17.0715 13.8299 16.8586 14.3813C16.6419 14.9594 16.3012 15.4829 15.8605 15.9152C15.4277 16.3553 14.9043 16.6958 14.3266 16.9133C13.7752 17.1271 13.1468 17.2726 12.2258 17.3159C11.9946 17.3262 11.8033 17.3349 11.6094 17.3418L11.4415 17.347C10.81 17.3624 10.1783 17.369 9.54664 17.3669L8.90088 17.3678H7.76777C7.13609 17.3699 6.50441 17.3633 5.87291 17.3479L5.70498 17.3427C5.49949 17.3352 5.29405 17.3266 5.08866 17.3167C4.16763 17.2734 3.53918 17.1263 2.98691 16.9133C2.40927 16.6964 1.88604 16.3557 1.45389 15.9152C1.01332 15.4827 0.67242 14.9592 0.454954 14.3813C0.241144 13.8299 0.0957184 13.2015 0.0524371 12.2804C0.0427965 12.075 0.0341401 11.8696 0.0264683 11.6641L0.0221402 11.4961C0.00618117 10.8646 -0.00103317 10.233 0.000499468 9.60125V7.82149C-0.00191647 7.19009 0.00443214 6.55869 0.0195433 5.92746L0.0256027 5.75953C0.0325277 5.56563 0.041184 5.37345 0.0515715 5.14319C0.0948528 4.22128 0.240278 3.59369 0.454088 3.04141C0.671683 2.4637 1.01325 1.9407 1.45475 1.50923C1.88661 1.0684 2.40951 0.727182 2.98691 0.50941C3.53918 0.295597 4.16676 0.150169 5.08866 0.106887L5.70498 0.0809173L5.87291 0.0765892C6.50412 0.0606378 7.13551 0.0534234 7.76691 0.054948L9.54664 0.0558136ZM8.65677 4.38402C8.0833 4.37591 7.51393 4.48186 6.98176 4.69571C6.44959 4.90957 5.96523 5.22706 5.55683 5.62973C5.14842 6.03241 4.82412 6.51224 4.60277 7.04134C4.38142 7.57044 4.26743 8.13826 4.26743 8.7118C4.26743 9.28534 4.38142 9.85316 4.60277 10.3823C4.82412 10.9114 5.14842 11.3912 5.55683 11.7939C5.96523 12.1966 6.44959 12.514 6.98176 12.7279C7.51393 12.9417 8.0833 13.0477 8.65677 13.0396C9.80466 13.0396 10.9055 12.5836 11.7172 11.7719C12.5289 10.9602 12.9849 9.85928 12.9849 8.71137C12.9849 7.56346 12.5289 6.46256 11.7172 5.65086C10.9055 4.83917 9.80466 4.38402 8.65677 4.38402ZM8.65677 6.11531C9.00173 6.10895 9.3445 6.1714 9.66505 6.299C9.9856 6.42661 10.2775 6.61681 10.5237 6.8585C10.77 7.10019 10.9656 7.38852 11.0991 7.70666C11.2326 8.02479 11.3014 8.36634 11.3015 8.71136C11.3016 9.05639 11.2329 9.39796 11.0994 9.71614C10.966 10.0343 10.7705 10.3227 10.5244 10.5645C10.2782 10.8063 9.98637 10.9966 9.66585 11.1243C9.34534 11.252 9.0026 11.3145 8.65764 11.3083C7.9689 11.3083 7.30837 11.0347 6.82136 10.5477C6.33435 10.0607 6.06076 9.40012 6.06076 8.71137C6.06076 8.02262 6.33435 7.36208 6.82136 6.87506C7.30837 6.38805 7.9689 6.11444 8.65764 6.11444L8.65677 6.11531ZM13.2013 3.08556C12.9221 3.09674 12.658 3.21554 12.4643 3.41708C12.2707 3.61862 12.1626 3.88726 12.1626 4.16675C12.1626 4.44623 12.2707 4.71488 12.4643 4.91642C12.658 5.11796 12.9221 5.23676 13.2013 5.24794C13.4883 5.24794 13.7635 5.13393 13.9664 4.93101C14.1694 4.72809 14.2833 4.45286 14.2833 4.16588C14.2833 3.8789 14.1694 3.60368 13.9664 3.40076C13.7635 3.19783 13.4883 3.08383 13.2013 3.08383V3.08556Z" fill="#767676"/>
</svg>
