<svg width="79" height="16" viewBox="0 0 79 16" fill="none" xmlns="http://www.w3.org/2000/svg">
<path d="M70.9993 11.3333C72.8403 11.3333 74.3327 9.84095 74.3327 8C74.3327 6.15905 72.8403 4.66667 70.9993 4.66667C69.1584 4.66667 67.666 6.15905 67.666 8C67.666 9.84095 69.1584 11.3333 70.9993 11.3333Z" fill="#103DDE"/>
<path d="M70.9997 1.33333C69.6811 1.33333 68.3922 1.72433 67.2959 2.45687C66.1995 3.18941 65.3451 4.2306 64.8405 5.44878C64.3359 6.66695 64.2039 8.0074 64.4611 9.3006C64.7183 10.5938 65.3533 11.7817 66.2856 12.714C67.218 13.6464 68.4059 14.2813 69.6991 14.5386C70.9923 14.7958 72.3327 14.6638 73.5509 14.1592C74.7691 13.6546 75.8103 12.8001 76.5428 11.7038C77.2754 10.6075 77.6663 9.31854 77.6663 8C77.6663 7.12452 77.4939 6.25761 77.1589 5.44878C76.8238 4.63994 76.3328 3.90501 75.7137 3.28595C75.0947 2.6669 74.3597 2.17583 73.5509 1.8408C72.7421 1.50577 71.8752 1.33333 70.9997 1.33333ZM70.9997 12.6667C70.0767 12.6667 69.1744 12.393 68.407 11.8802C67.6396 11.3674 67.0414 10.6386 66.6882 9.78586C66.335 8.93314 66.2426 7.99482 66.4227 7.08958C66.6027 6.18433 67.0472 5.35281 67.6998 4.70017C68.3525 4.04752 69.184 3.60307 70.0893 3.423C70.9945 3.24294 71.9328 3.33535 72.7855 3.68856C73.6383 4.04177 74.3671 4.63991 74.8799 5.40734C75.3926 6.17477 75.6663 7.07702 75.6663 8C75.6663 9.23768 75.1747 10.4247 74.2995 11.2998C73.4243 12.175 72.2374 12.6667 70.9997 12.6667Z" fill="#103DDE"/>
<line x1="18" y1="7.75" x2="61" y2="7.75" stroke="#103DDE" stroke-width="0.5" stroke-dasharray="6 6"/>
<path d="M7.99935 11.3333C9.8403 11.3333 11.3327 9.84095 11.3327 8C11.3327 6.15905 9.8403 4.66667 7.99935 4.66667C6.1584 4.66667 4.66602 6.15905 4.66602 8C4.66602 9.84095 6.1584 11.3333 7.99935 11.3333Z" fill="#103DDE"/>
<path d="M7.99968 1.33333C6.68114 1.33333 5.3922 1.72433 4.29588 2.45687C3.19955 3.18941 2.34506 4.2306 1.84048 5.44878C1.3359 6.66695 1.20387 8.0074 1.46111 9.3006C1.71834 10.5938 2.35328 11.7817 3.28563 12.714C4.21798 13.6464 5.40587 14.2813 6.69908 14.5386C7.99228 14.7958 9.33273 14.6638 10.5509 14.1592C11.7691 13.6546 12.8103 12.8001 13.5428 11.7038C14.2754 10.6075 14.6663 9.31854 14.6663 8C14.6663 7.12452 14.4939 6.25761 14.1589 5.44878C13.8238 4.63994 13.3328 3.90501 12.7137 3.28595C12.0947 2.6669 11.3597 2.17583 10.5509 1.8408C9.74206 1.50577 8.87516 1.33333 7.99968 1.33333ZM7.99968 12.6667C7.0767 12.6667 6.17445 12.393 5.40702 11.8802C4.63959 11.3674 4.04145 10.6386 3.68824 9.78586C3.33503 8.93314 3.24262 7.99482 3.42268 7.08958C3.60274 6.18433 4.0472 5.35281 4.69985 4.70017C5.35249 4.04752 6.18401 3.60307 7.08926 3.423C7.9945 3.24294 8.93281 3.33535 9.78553 3.68856C10.6383 4.04177 11.3671 4.63991 11.8799 5.40734C12.3926 6.17477 12.6663 7.07702 12.6663 8C12.6663 9.23768 12.1747 10.4247 11.2995 11.2998C10.4243 12.175 9.23735 12.6667 7.99968 12.6667Z" fill="#103DDE"/>
</svg>
