<svg width="14" height="14" viewBox="0 0 14 14" fill="none" xmlns="http://www.w3.org/2000/svg">
<path d="M8.75033 7L6.41699 4.66667M8.75033 7L6.41699 9.33333M8.75033 7H2.91699M5.83366 12.25C6.5231 12.25 7.20579 12.1142 7.84275 11.8504C8.47971 11.5865 9.05846 11.1998 9.54597 10.7123C10.0335 10.2248 10.4202 9.64605 10.684 9.00909C10.9479 8.37213 11.0837 7.68944 11.0837 7C11.0837 6.31056 10.9479 5.62787 10.684 4.99091C10.4202 4.35395 10.0335 3.7752 9.54597 3.28769C9.05846 2.80018 8.47971 2.41347 7.84275 2.14963C7.20579 1.8858 6.5231 1.75 5.83366 1.75" stroke="#F7F7F7" stroke-linecap="round" stroke-linejoin="round"/>
</svg>
