<svg width="24" height="24" viewBox="0 0 24 24" fill="none" xmlns="http://www.w3.org/2000/svg">
<path d="M17.4409 8.6301C17.2509 8.6301 17.0609 8.7001 16.9109 8.8501C16.6209 9.1401 16.6209 9.6201 16.9109 9.9101L18.9409 11.9401L16.9109 13.9701C16.6209 14.2601 16.6209 14.7401 16.9109 15.0301C17.2009 15.3201 17.6809 15.3201 17.9709 15.0301L20.5309 12.4701C20.8209 12.1801 20.8209 11.7001 20.5309 11.4101L17.9709 8.8501C17.8209 8.7001 17.6309 8.6301 17.4409 8.6301Z" fill="#E12F23"/>
<path d="M19.9298 11.1899H9.75977C9.34977 11.1899 9.00977 11.5299 9.00977 11.9399C9.00977 12.3499 9.34977 12.6899 9.75977 12.6899H19.9298C20.3398 12.6899 20.6798 12.3499 20.6798 11.9399C20.6798 11.5299 20.3398 11.1899 19.9298 11.1899Z" fill="#E12F23"/>
<path d="M11.7598 3.25C6.60977 3.25 3.00977 6.85 3.00977 12C3.00977 17.15 6.60977 20.75 11.7598 20.75C12.1698 20.75 12.5098 20.41 12.5098 20C12.5098 19.59 12.1698 19.25 11.7598 19.25C7.48977 19.25 4.50977 16.27 4.50977 12C4.50977 7.73 7.48977 4.75 11.7598 4.75C12.1698 4.75 12.5098 4.41 12.5098 4C12.5098 3.59 12.1698 3.25 11.7598 3.25Z" fill="#E12F23"/>
</svg>
