<svg width="92" height="18" viewBox="0 0 92 18" fill="none" xmlns="http://www.w3.org/2000/svg">
<path d="M0 18L1.30909 3.10345L13.0909 18H0Z" fill="#103DDE"/>
<path d="M18 -7.62939e-06L16.6909 14.8965L4.90909 -6.24099e-06L18 -7.62939e-06Z" fill="#E12F23"/>
<path d="M91.3134 4.4851C91.4095 4.47994 91.5054 4.49847 91.5943 4.53937C91.6832 4.58027 91.763 4.64253 91.828 4.72173C91.8929 4.80093 91.9414 4.89513 91.9701 4.99762C91.9987 5.10012 92.0068 5.2084 91.9937 5.31477C91.9699 5.54358 91.8716 5.75463 91.7174 5.90779C91.5633 6.06095 91.3641 6.14552 91.1577 6.14542C91.0615 6.15054 90.9655 6.13198 90.8764 6.09104C90.7873 6.0501 90.7074 5.98778 90.6423 5.90852C90.5772 5.82925 90.5286 5.73497 90.4998 5.63236C90.471 5.52975 90.4627 5.42132 90.4757 5.31477C90.5001 5.08597 90.5989 4.87513 90.7533 4.7222C90.9077 4.56928 91.107 4.48491 91.3134 4.4851ZM91.1813 5.95508C91.3398 5.95466 91.4927 5.8895 91.6111 5.7719C91.7295 5.6543 91.8053 5.49239 91.8241 5.31672C91.8346 5.23453 91.8287 5.15074 91.8068 5.07139C91.7849 4.99204 91.7476 4.91908 91.6974 4.85777C91.6472 4.79645 91.5855 4.7483 91.5167 4.71678C91.4479 4.68525 91.3737 4.67113 91.2994 4.67543C91.1397 4.67471 90.9853 4.73971 90.8657 4.85801C90.7462 4.9763 90.6699 5.13961 90.6514 5.31672C90.6417 5.39911 90.6483 5.48289 90.6709 5.56209C90.6935 5.64129 90.7314 5.71395 90.782 5.77491C90.8326 5.83587 90.8946 5.88363 90.9636 5.91477C91.0327 5.94591 91.107 5.95967 91.1813 5.95508ZM91.5311 5.6076C91.4894 5.65641 91.439 5.69486 91.3831 5.72042C91.3272 5.74599 91.2671 5.7581 91.2067 5.75596C90.9522 5.75596 90.7992 5.57636 90.8246 5.30696C90.8357 5.18348 90.8876 5.06906 90.9702 4.98603C91.0529 4.903 91.1602 4.85734 91.2714 4.85796C91.3266 4.85309 91.382 4.86089 91.4343 4.88086C91.4867 4.90084 91.5348 4.93258 91.5757 4.97412L91.4655 5.14688C91.4416 5.11878 91.4124 5.09681 91.3801 5.08248C91.3478 5.06816 91.3131 5.06183 91.2784 5.06392C91.2185 5.06427 91.1609 5.08927 91.1165 5.13412C91.0722 5.17896 91.0442 5.24051 91.0379 5.30696C91.0338 5.3386 91.0361 5.37086 91.0446 5.40139C91.0531 5.43192 91.0676 5.45995 91.0871 5.48343C91.1065 5.50691 91.1304 5.52524 91.157 5.5371C91.1836 5.54895 91.2122 5.55403 91.2408 5.55196C91.2805 5.551 91.3197 5.54128 91.356 5.52336C91.3923 5.50543 91.4251 5.47966 91.4524 5.44752L91.5311 5.6076Z" fill="#103DDE"/>
<path d="M26.2169 4.26941L26 6.56614H28.6592L27.985 13.7287H30.2332L30.9073 6.56614H33.57L33.786 4.26941H26.2169Z" fill="#103DDE"/>
<path d="M39.4264 4C36.6413 4 34.4893 6.29673 34.2348 9.00049C33.9804 11.7042 35.6995 14 38.4846 14C41.2697 14 43.4234 11.7033 43.6779 8.99854C43.9323 6.2938 42.2132 4 39.4264 4ZM38.7014 11.7033C37.3085 11.7033 36.4419 10.6218 36.594 9.00049C36.7462 7.37921 37.8183 6.29673 39.2104 6.29673C40.6025 6.29673 41.4699 7.37823 41.3169 8.99854C41.1639 10.6188 40.0935 11.7033 38.7014 11.7033Z" fill="#103DDE"/>
<path d="M45.0256 4.26941L44.8096 6.56614H47.4722L46.798 13.7287H49.0383L49.7125 6.56614H52.3752L52.5921 4.26941H45.0256Z" fill="#103DDE"/>
<path d="M59.4671 10.4178C60.429 9.87702 61.2973 9.0005 61.4311 7.58029C61.606 5.75696 60.4098 4.26941 58.3522 4.26941H54.1138L53.2236 13.7287H55.4639L56.1381 6.56614H58.0759C58.8008 6.56614 59.1803 7.03954 59.1296 7.58029C59.0789 8.12104 58.6102 8.59445 57.8844 8.59445H56.2361L57.2443 10.8912L58.4904 13.7287H60.9117L59.4671 10.4178Z" fill="#103DDE"/>
<path d="M79.0009 4.26941L78.555 8.99855L78.6214 10.2138H78.5025L76.0943 4.26941H73.3696L72.4785 13.7287H74.7197L75.1648 8.99855L75.0966 7.78234H75.219L77.6281 13.7287H80.3511L81.2395 4.26941H79.0009Z" fill="#103DDE"/>
<path d="M86.8093 7.86335C85.9349 7.63592 85.2572 7.3753 85.3088 6.83748C85.3402 6.49878 85.6585 6.16301 86.5216 6.16301C87.139 6.16301 87.4607 6.36408 87.6348 6.56613C87.7304 6.68147 87.8 6.8207 87.8376 6.97218H90.1392C90.0894 6.44057 89.9253 5.93025 89.6608 5.48463C89.2227 4.7428 88.3614 4 86.7218 4C84.4938 4 83.0781 5.40556 82.9312 6.97218C82.7694 8.69009 83.9569 9.33626 85.1898 9.7306C86.414 10.0937 87.6383 10.3094 87.5727 11.0278C87.5333 11.4466 87.1355 11.838 86.2269 11.838C85.4994 11.838 85.0779 11.5539 84.8506 11.2709C84.7181 11.1036 84.6247 10.9024 84.5786 10.6852H82.2832C82.3703 11.2778 82.5684 11.8433 82.8647 12.3446C83.3684 13.1684 84.2962 13.9922 86.0267 13.9922C88.4357 13.9922 89.7981 12.5056 89.9511 10.8834C90.1514 8.75744 88.225 8.25769 86.8093 7.86335Z" fill="#103DDE"/>
<path d="M68.971 4.26941H65.9804L62.209 13.7287H64.4633L65.0544 12.203L65.9577 9.837L67.2221 6.58273L67.8946 9.837L68.3843 12.203L68.6947 13.7287H71.13L68.971 4.26941Z" fill="#103DDE"/>
</svg>
