<svg width="22" height="22" viewBox="0 0 22 22" fill="none" xmlns="http://www.w3.org/2000/svg">
<path d="M6.12312 3.04335L6.68503 2.48143C6.85693 2.30958 7.09005 2.21304 7.33312 2.21304C7.57618 2.21304 7.8093 2.30958 7.9812 2.48143L10.3517 4.85193C10.5235 5.02383 10.6201 5.25695 10.6201 5.50001C10.6201 5.74308 10.5235 5.9762 10.3517 6.1481L8.70812 7.79168C8.57477 7.92534 8.48683 8.09753 8.45672 8.28392C8.42662 8.4703 8.45588 8.66143 8.54037 8.83026C9.54203 10.8335 11.1663 12.4578 13.1695 13.4594C13.3385 13.5438 13.5296 13.5729 13.716 13.5426C13.9024 13.5124 14.0746 13.4243 14.2081 13.2908L15.8517 11.6481C16.0236 11.4762 16.2567 11.3797 16.4998 11.3797C16.7428 11.3797 16.976 11.4762 17.1479 11.6481L19.5184 14.0186C19.6902 14.1905 19.7868 14.4236 19.7868 14.6667C19.7868 14.9097 19.6902 15.1429 19.5184 15.3148L18.9564 15.8767C18.0203 16.813 16.7779 17.3802 15.4572 17.4742C14.1365 17.5682 12.8263 17.1826 11.767 16.3882L10.6597 15.5568C9.06143 14.3581 7.64167 12.9384 6.44303 11.3401L5.61162 10.2328C4.81724 9.17352 4.43163 7.86327 4.52559 6.54259C4.61955 5.22191 5.18678 3.97945 6.12312 3.04335Z" fill="#F7F7F7"/>
</svg>
