<svg width="24" height="24" viewBox="0 0 24 24" fill="none" xmlns="http://www.w3.org/2000/svg">
<g clip-path="url(#clip0_497_3280)">
<path fill-rule="evenodd" clip-rule="evenodd" d="M12 23C13.4445 23 14.8749 22.7155 16.2095 22.1627C17.5441 21.6099 18.7567 20.7996 19.7782 19.7782C20.7996 18.7567 21.6099 17.5441 22.1627 16.2095C22.7155 14.8749 23 13.4445 23 12C23 10.5555 22.7155 9.12506 22.1627 7.79048C21.6099 6.4559 20.7996 5.24327 19.7782 4.22183C18.7567 3.20038 17.5441 2.39013 16.2095 1.83733C14.8749 1.28452 13.4445 1 12 1C9.08262 1 6.28473 2.15893 4.22183 4.22183C2.15893 6.28473 1 9.08262 1 12C1 14.9174 2.15893 17.7153 4.22183 19.7782C6.28473 21.8411 9.08262 23 12 23ZM10.5126 7.09889L17.4108 10.9318C17.6012 11.0377 17.7599 11.1925 17.8704 11.3803C17.9808 11.5682 18.0391 11.7821 18.0391 12C18.0391 12.2179 17.9808 12.4318 17.8704 12.6197C17.7599 12.8075 17.6012 12.9623 17.4108 13.0682L10.5126 16.9011C10.2892 17.0253 10.0373 17.0889 9.78174 17.0857C9.52621 17.0825 9.27595 17.0126 9.05575 16.883C8.83555 16.7533 8.65305 16.5683 8.52634 16.3464C8.39962 16.1245 8.33309 15.8733 8.33333 15.6178V8.38222C8.33309 8.12667 8.39962 7.8755 8.52634 7.65358C8.65305 7.43166 8.83555 7.2467 9.05575 7.11703C9.27595 6.98735 9.52621 6.91746 9.78174 6.91428C10.0373 6.9111 10.2892 6.97473 10.5126 7.09889Z" fill="#AF2A42"/>
</g>
<defs>
<clipPath id="clip0_497_3280">
<rect width="24" height="24" fill="white"/>
</clipPath>
</defs>
</svg>
