<svg width="20" height="20" viewBox="0 0 20 20" fill="none" xmlns="http://www.w3.org/2000/svg">
<g clip-path="url(#clip0_1769_2471)">
<path d="M10.0003 18.3334C5.39783 18.3334 1.66699 14.6025 1.66699 10C1.66699 5.39752 5.39783 1.66669 10.0003 1.66669C14.6028 1.66669 18.3337 5.39752 18.3337 10C18.3337 14.6025 14.6028 18.3334 10.0003 18.3334ZM9.16699 12.5V14.1667H10.8337V12.5H9.16699ZM10.8337 11.1292C11.5034 10.9273 12.0783 10.4916 12.4538 9.90147C12.8292 9.3113 12.9802 8.6059 12.8793 7.91374C12.7783 7.22159 12.4321 6.58872 11.9037 6.1304C11.3753 5.67208 10.6998 5.4188 10.0003 5.41669C9.32604 5.41664 8.67255 5.65015 8.15099 6.07751C7.62943 6.50488 7.272 7.09971 7.13949 7.76085L8.77449 8.08835C8.82089 7.85621 8.93226 7.64202 9.09563 7.4707C9.25901 7.29938 9.46767 7.17797 9.69735 7.12061C9.92702 7.06324 10.1683 7.07228 10.393 7.14666C10.6178 7.22105 10.8168 7.35772 10.9669 7.54078C11.117 7.72384 11.212 7.94576 11.2409 8.18072C11.2698 8.41568 11.2314 8.65402 11.1301 8.86801C11.0289 9.08199 10.8689 9.26282 10.6689 9.38946C10.4689 9.5161 10.2371 9.58334 10.0003 9.58335C9.77931 9.58335 9.56735 9.67115 9.41107 9.82743C9.25479 9.98371 9.16699 10.1957 9.16699 10.4167V11.6667H10.8337V11.1292Z" fill="#103DDE"/>
</g>
<defs>
<clipPath id="clip0_1769_2471">
<rect width="20" height="20" fill="white"/>
</clipPath>
</defs>
</svg>
