<svg width="22" height="21" viewBox="0 0 22 21" fill="none" xmlns="http://www.w3.org/2000/svg">
<path d="M19.4948 3.95752L19.0019 4.45036C18.766 4.68629 18.5202 4.90908 18.2686 5.12466L20.0349 6.89063L20.363 6.5625L19.4948 3.95752Z" fill="#103DDE"/>
<path d="M16.5692 2.01731L17.0617 1.52447L14.457 0.65625L14.1289 0.984375L15.8952 2.75067C16.1105 2.499 16.3336 2.25323 16.5692 2.01731Z" fill="#103DDE"/>
<path d="M18.0539 10.1719C17.9939 8.75535 17.5456 7.41004 16.7457 6.24323C16.7279 6.25438 16.7109 6.26587 16.6932 6.27702L17.1178 7.97572L16.0084 9.08544L15.0358 7.14032C15.0299 7.14294 15.024 7.1459 15.0178 7.14852C14.9075 7.19512 14.792 7.21874 14.6736 7.21874C14.3992 7.21874 14.1574 7.08913 13.9973 6.89062H13.4775C13.6698 7.90354 13.7778 9.01752 13.7952 10.1719H18.0539Z" fill="#103DDE"/>
<path d="M14.3981 4.91727L13.2451 4.62918L13.042 4.83196L14.155 5.38846C14.2334 5.22965 14.3135 5.07215 14.3981 4.91727Z" fill="#103DDE"/>
<path d="M16.0977 14.7656H18.0664V15.4219H16.0977V14.7656Z" fill="#103DDE"/>
<path d="M12.8105 6.89062H8.23213C8.03919 7.85236 7.91942 8.95913 7.90039 10.1719H13.1382C13.1202 9.01097 13.0093 7.89403 12.8105 6.89062ZM9.53478 9.51562H8.87853V8.85938H9.53478V9.51562ZM10.8473 9.51562H10.191V8.85938H10.8473V9.51562ZM12.1598 9.51562H11.5035V8.85938H12.1598V9.51562Z" fill="#103DDE"/>
<path d="M17.1447 14.1094C17.6939 13.1027 18.0057 11.9789 18.0559 10.8281H13.7978C13.7801 12.0081 13.6675 13.1171 13.4775 14.1094H14.4573H17.1447Z" fill="#103DDE"/>
<path d="M16.3911 7.77428L16.103 6.62125C15.9481 6.70557 15.7906 6.78597 15.6318 6.86406L16.1883 7.97706L16.3911 7.77428Z" fill="#103DDE"/>
<path d="M13.8123 6.23437C13.8225 6.15497 13.8395 6.07654 13.8717 6.00206C13.8743 5.99615 13.8773 5.99025 13.8799 5.98434L13.1807 5.63489C13.2364 5.82947 13.2893 6.02897 13.3378 6.23437H13.8123Z" fill="#103DDE"/>
<path d="M3.57535 13.4531H7.45412C7.32877 12.6151 7.25888 11.7357 7.2451 10.8281H2.98145C3.02016 11.7387 3.21999 12.619 3.57535 13.4531Z" fill="#103DDE"/>
<path d="M2.97266 15.4219V16.0781H3.50356L4.15981 17.3906H8.67613L7.69175 15.4219H2.97266ZM4.94141 16.7344H4.28516V16.0781H4.94141V16.7344ZM6.25391 16.7344H5.59766V16.0781H6.25391V16.7344ZM7.56641 16.7344H6.91016V16.0781H7.56641V16.7344Z" fill="#103DDE"/>
<path d="M7.89453 14.1094H2.64453C2.46373 14.1094 2.31641 14.2564 2.31641 14.4375C2.31641 14.6186 2.46373 14.7656 2.64453 14.7656H7.89453C8.07533 14.7656 8.22266 14.6186 8.22266 14.4375C8.22266 14.2564 8.07533 14.1094 7.89453 14.1094Z" fill="#103DDE"/>
<path d="M8.8188 14.1094H12.8088C13.0011 13.147 13.1228 12.0412 13.1415 10.8281H7.90137C7.91548 11.7488 7.9893 12.6384 8.12154 13.482C8.44704 13.5594 8.7079 13.7983 8.8188 14.1094ZM11.5042 11.4844H12.1604V12.1406H11.5042V11.4844ZM10.1917 11.4844H10.8479V12.1406H10.1917V11.4844ZM8.87918 11.4844H9.53543V12.1406H8.87918V11.4844Z" fill="#103DDE"/>
<path d="M17.0335 2.48128C15.9431 3.57164 15.0821 4.84312 14.4748 6.26062C14.4629 6.28786 14.457 6.31673 14.457 6.34627C14.457 6.49491 14.6204 6.60319 14.7592 6.54478C16.1758 5.93742 17.4476 5.07642 18.5379 3.98606L19.3953 3.12867C19.5965 2.92786 19.707 2.66077 19.707 2.37628C19.707 1.78959 19.2296 1.3125 18.6429 1.3125C18.3588 1.3125 18.0917 1.42308 17.8905 1.62422L17.0335 2.48128ZM16.6578 4.82573L16.1938 4.36177L16.6345 3.92109L17.0984 4.38506L16.6578 4.82573ZM18.4907 2.06489L18.9546 2.52886L18.4907 2.99283L18.0267 2.52886L18.4907 2.06489ZM18.0264 3.4568L17.5624 3.92077L17.0984 3.4568L17.5624 2.99283L18.0264 3.4568Z" fill="#103DDE"/>
<path d="M13.0433 3.90238L14.7417 4.3273C14.7525 4.30958 14.7644 4.29252 14.7755 4.2748C13.9224 3.68975 12.9744 3.29272 11.9717 3.09814C12.2286 3.40363 12.4675 3.79475 12.6827 4.26299L13.0433 3.90238Z" fill="#103DDE"/>
<path d="M8.81839 14.7656C8.73669 14.9947 8.57394 15.1823 8.36328 15.2975L9.40967 17.3906H10.8475L10.8373 17.9806C11.5267 17.701 12.2171 16.5329 12.6607 14.7656H8.81839Z" fill="#103DDE"/>
<path d="M3.098 16.7344H1.00391V17.177C1.00391 18.7422 2.27736 20.0156 3.84252 20.0156H7.47453C8.70402 20.0156 9.80159 19.2107 10.1766 18.0469H3.75425L3.098 16.7344Z" fill="#103DDE"/>
<path d="M19.707 14.7656H18.7227V16.0781H15.4414V14.7656H14.457C14.2762 14.7656 14.1289 14.9126 14.1289 15.0938V19.6875C14.1289 19.8686 14.2762 20.0156 14.457 20.0156H19.707C19.8878 20.0156 20.0352 19.8686 20.0352 19.6875V15.0938C20.0352 14.9126 19.8878 14.7656 19.707 14.7656ZM18.0664 19.3594H17.4102V18.7031H18.0664V19.3594ZM19.3789 19.3594H18.7227V18.7031H19.3789V19.3594Z" fill="#103DDE"/>
<path d="M3.39167 8.07614C3.49766 8.23495 3.75983 8.23495 3.86581 8.07614L5.81291 5.15583C6.10133 4.72336 6.25391 4.21969 6.25391 3.69961V3.60938C6.25391 2.16202 5.07627 0.984375 3.62891 0.984375C2.18155 0.984375 1.00391 2.16202 1.00391 3.60938V3.69961C1.00391 4.21969 1.15648 4.72303 1.44491 5.15583L3.39167 8.07614ZM3.62891 1.64062C4.71467 1.64062 5.59766 2.52361 5.59766 3.60938C5.59766 4.69514 4.71467 5.57812 3.62891 5.57812C2.54314 5.57812 1.66016 4.69514 1.66016 3.60938C1.66016 2.52361 2.54314 1.64062 3.62891 1.64062Z" fill="#103DDE"/>
<path d="M11.9512 17.9091C12.4722 17.809 12.9805 17.6538 13.4724 17.4441V15.0938C13.4724 14.9782 13.496 14.8687 13.5327 14.7656H13.3362C13.01 16.129 12.53 17.2236 11.9512 17.9091Z" fill="#103DDE"/>
<path d="M7.70292 6.23439C8.02875 4.87136 8.50912 3.77673 9.08761 3.09128C8.32144 3.23893 7.58217 3.50636 6.89705 3.88206C6.86456 4.46645 6.68573 5.03017 6.35925 5.51973L5.88281 6.23439H7.70292Z" fill="#103DDE"/>
<path d="M5.4453 6.89062L4.41237 8.44036C4.23715 8.70253 3.94446 8.85938 3.62913 8.85938C3.46901 8.85938 3.31512 8.81836 3.17895 8.74388C3.06771 9.2108 3.00602 9.68887 2.98535 10.1719H7.24179C7.25951 8.99194 7.37205 7.88287 7.56204 6.89062H5.4453Z" fill="#103DDE"/>
<path d="M3.62891 4.92188C4.35378 4.92188 4.94141 4.33425 4.94141 3.60938C4.94141 2.8845 4.35378 2.29688 3.62891 2.29688C2.90403 2.29688 2.31641 2.8845 2.31641 3.60938C2.31641 4.33425 2.90403 4.92188 3.62891 4.92188Z" fill="#103DDE"/>
<path d="M12.6642 6.23438C12.5756 5.87836 12.4739 5.54269 12.3623 5.22572L11.9345 5.01178L12.1838 4.76241C11.7025 3.61331 11.1027 2.95312 10.5196 2.95312C9.73405 2.95312 8.89274 4.19639 8.37988 6.23438H12.6642Z" fill="#103DDE"/>
</svg>
