<svg width="22" height="14" viewBox="0 0 22 14" fill="none" xmlns="http://www.w3.org/2000/svg">
<path d="M17.3412 9.73884C16.3561 9.73884 15.5546 10.5405 15.5546 11.5255C15.5546 12.5107 16.3561 13.3122 17.3412 13.3122C18.3262 13.3122 19.1279 12.5107 19.1279 11.5255C19.1279 10.5405 18.3262 9.73884 17.3412 9.73884ZM17.3412 12.051C17.0514 12.051 16.8157 11.8154 16.8157 11.5255C16.8157 11.2357 17.0514 11 17.3412 11C17.6311 11 17.8667 11.2357 17.8667 11.5255C17.8667 11.8154 17.6311 12.051 17.3412 12.051Z" fill="#103DDE"/>
<path d="M17.1701 2.31196H14.0832C13.8509 2.31196 13.6628 2.50031 13.6628 2.73235V10.93C13.6628 11.1621 13.8509 11.3504 14.0832 11.3504H14.529C14.7371 11.3504 14.9215 11.2005 14.9484 10.9942C15.1134 9.73002 16.1217 8.946 17.3414 8.946C18.5612 8.946 19.5695 9.73005 19.7345 10.9942C19.7614 11.2006 19.9455 11.3504 20.1538 11.3504H20.5992C20.8313 11.3504 21.0196 11.1621 21.0196 10.93V6.83119C21.0196 6.73241 20.9849 6.63696 20.9217 6.56151L17.4925 2.46267C17.4127 2.36726 17.2946 2.31196 17.1701 2.31196ZM14.5036 5.67511V3.57314C14.5036 3.3411 14.6917 3.15275 14.924 3.15275H16.7758C16.9004 3.15275 17.0188 3.20825 17.0986 3.30407L18.8502 5.40604C19.0783 5.67992 18.8836 6.0955 18.5272 6.0955H14.924C14.6917 6.0955 14.5036 5.90739 14.5036 5.67511Z" fill="#103DDE"/>
<path d="M0.420394 11.3506H1.49683C1.70493 11.3506 1.88926 11.2007 1.91616 10.9944C2.08115 9.73022 3.08948 8.94621 4.30924 8.94621C5.529 8.94621 6.53733 9.73026 6.70232 10.9944C6.72922 11.2008 6.91334 11.3506 7.12165 11.3506H12.4016C12.6337 11.3506 12.822 11.1623 12.822 10.9302V0.420394C12.822 0.188353 12.6337 0 12.4016 0H0.420394C0.188112 0 0 0.188353 0 0.420394V10.9302C0 11.1623 0.188112 11.3506 0.420394 11.3506Z" fill="#103DDE"/>
<path d="M4.30903 9.73884C3.32385 9.73884 2.52236 10.5405 2.52236 11.5255C2.52236 12.5107 3.32385 13.3122 4.30903 13.3122C5.294 13.3122 6.0957 12.5107 6.0957 11.5255C6.0957 10.5405 5.294 9.73884 4.30903 9.73884ZM4.30903 12.051C4.01919 12.051 3.78354 11.8154 3.78354 11.5255C3.78354 11.2357 4.01919 11 4.30903 11C4.59888 11 4.83452 11.2357 4.83452 11.5255C4.83452 11.8154 4.59888 12.051 4.30903 12.051Z" fill="#103DDE"/>
</svg>
