<svg width="20" height="19" viewBox="0 0 20 19" fill="none" xmlns="http://www.w3.org/2000/svg">
<g clip-path="url(#clip0_1769_2028)">
<path d="M5.71162 5.91025H0.0195312V7.18182H6.98319L5.71162 5.91025Z" fill="#103DDE"/>
<path d="M12.3985 7.18182H16.9048L13.1713 3.44842C12.5031 2.78016 11.6148 2.41211 10.6697 2.41211H7.36523L11.9487 6.9957C12.0688 7.11572 12.2287 7.18182 12.3985 7.18182Z" fill="#103DDE"/>
<path d="M0.576172 13.065H16.4774C17.8791 13.065 19.0195 11.9247 19.0195 10.5222C19.0195 9.73179 18.7118 8.98888 18.153 8.42992L18.018 8.2951H12.3984C11.9315 8.2951 11.4923 8.11333 11.1616 7.78311L5.79076 2.41211H0.576172C0.268715 2.41211 0.0195312 2.66129 0.0195312 2.96875V4.79697H5.94225C6.08981 4.79697 6.23144 4.85567 6.33581 4.96004L8.72066 7.34505C8.87983 7.50421 8.92752 7.74354 8.84142 7.95155C8.75517 8.15957 8.55222 8.29525 8.3271 8.29525H0.0195312V12.5083C0.0195312 12.8158 0.268715 13.065 0.576172 13.065Z" fill="#103DDE"/>
<path d="M18.4629 15.45H13.6101C13.8997 15.086 14.1047 14.6521 14.1962 14.1783H8.42017C8.51149 14.6521 8.71646 15.086 9.00609 15.45H5.26297C5.5526 15.086 5.75771 14.6521 5.84904 14.1783H0.0731659C0.16449 14.6521 0.369606 15.086 0.659233 15.45H0.576172C0.268715 15.45 0.0195312 15.6992 0.0195312 16.0066C0.0195312 16.3139 0.268715 16.5633 0.576172 16.5633H18.4629C18.7703 16.5633 19.0195 16.3139 19.0195 16.0066C19.0195 15.6992 18.7703 15.45 18.4629 15.45Z" fill="#103DDE"/>
</g>
<defs>
<clipPath id="clip0_1769_2028">
<rect width="19" height="19" fill="white" transform="translate(0.0195312)"/>
</clipPath>
</defs>
</svg>
