<svg width="22" height="21" viewBox="0 0 22 21" fill="none" xmlns="http://www.w3.org/2000/svg">
<g clip-path="url(#clip0_1769_2034)">
<path d="M1.14735 19.6827C1.41811 19.6703 1.71339 19.8179 1.88563 20.064C2.27928 20.6546 2.9602 20.9992 3.66163 20.9992H3.72316C4.39847 20.9798 4.97221 20.6826 5.4088 20.064C5.74109 19.5841 6.51622 19.5841 6.84835 20.064C7.242 20.6546 7.88191 20.9992 8.58318 20.9992C9.47479 20.9992 9.88655 20.5772 10.4042 20.0015V10.0918L2.11938 13.6249C1.83644 13.7479 1.68872 14.0677 1.77492 14.3632L3.35402 19.6949C3.19396 19.6457 3.01772 19.535 2.90685 19.3874C2.5132 18.7843 1.8241 18.4522 1.12283 18.4522C0.778367 18.4646 0.5076 18.7352 0.519937 19.0798C0.532273 19.4243 0.83973 19.6703 1.14735 19.6827ZM8.55867 13.5757C8.89833 13.5757 9.1739 13.8509 9.1739 14.1909C9.1739 14.5306 8.89833 14.806 8.55867 14.806C8.21885 14.806 7.94344 14.5306 7.94344 14.1909C7.94344 13.8509 8.21885 13.5757 8.55867 13.5757Z" fill="#103DDE"/>
<path d="M20.8916 18.4522C20.2025 18.4646 19.5341 18.8214 19.1526 19.3874C19.0419 19.5595 18.8697 19.6703 18.6851 19.7195L20.223 14.3632C20.3092 14.0677 20.1615 13.7479 19.8786 13.6249L11.6348 10.0918V19.9493C11.9424 20.2287 12.3815 20.9992 13.5051 20.9992C14.2187 20.9992 14.8585 20.6546 15.2523 20.064C15.5844 19.5841 16.3597 19.5841 16.6919 20.064C17.3811 21.0668 18.3033 20.9633 18.4267 20.9992C19.1403 20.9992 19.7802 20.6546 20.1739 20.064C20.3339 19.8302 20.6334 19.6949 20.9163 19.6827C21.2608 19.6703 21.5314 19.3996 21.5192 19.0551C21.5069 18.7105 21.2608 18.4646 20.8916 18.4522ZM13.4805 14.806C13.1406 14.806 12.8652 14.5306 12.8652 14.1909C12.8652 13.8509 13.1406 13.5757 13.4805 13.5757C13.8201 13.5757 14.0955 13.8509 14.0955 14.1909C14.0955 14.5306 13.8201 14.806 13.4805 14.806Z" fill="#103DDE"/>
<path d="M12.2498 0H9.78906C9.44892 0 9.17382 0.275253 9.17382 0.615234V2.50179H7.32812C6.98814 2.50179 6.71289 2.77704 6.71289 3.11702V4.96272H15.3258V3.11702C15.3258 2.77704 15.0507 2.50179 14.7106 2.50179H12.8651V0.615234C12.8651 0.275253 12.5898 0 12.2498 0Z" fill="#103DDE"/>
<path d="M4.25195 6.80828V11.3921L10.2923 8.80362C10.5224 8.70445 10.7669 8.65398 11.0192 8.65398C11.2715 8.65398 11.516 8.70445 11.7474 8.80362L17.7866 11.3921V6.80828C17.7866 6.4683 17.5114 6.19321 17.1714 6.19321H4.86719C4.52705 6.19321 4.25195 6.4683 4.25195 6.80828Z" fill="#103DDE"/>
</g>
<defs>
<clipPath id="clip0_1769_2034">
<rect width="21" height="21" fill="white" transform="translate(0.519531)"/>
</clipPath>
</defs>
</svg>
