<svg width="22" height="21" viewBox="0 0 22 21" fill="none" xmlns="http://www.w3.org/2000/svg">
<path d="M17.2761 6.33674C17.868 5.7448 18.249 4.99503 18.3779 4.1675C18.4442 3.74094 18.3074 3.3216 18.0019 3.01644C17.6968 2.71128 17.2768 2.57478 16.8515 2.64106C16.0243 2.77002 15.2742 3.15064 14.6823 3.74258L12.8517 5.57319L11.7557 5.33464C11.9428 5.05081 11.9116 4.66428 11.6622 4.41458C11.3767 4.12977 10.9131 4.12944 10.6276 4.41458L10.0741 4.96813L8.77536 4.68528L8.86592 4.59472C9.15107 4.30958 9.15074 3.84528 8.86592 3.56047C8.59063 3.28419 8.10861 3.28386 7.83168 3.56047L7.07699 4.31516L4.38899 3.72978C4.17767 3.68352 3.95947 3.74783 3.80558 3.90106L3.2645 4.44214C3.12242 4.58422 3.0568 4.78011 3.08502 4.97928C3.11324 5.17846 3.23038 5.34842 3.40658 5.44588L9.71938 8.93319L6.52377 12.4297L3.27828 12.6023L2.7756 13.1046C2.66797 13.2126 2.62269 13.3665 2.65452 13.5158C2.68667 13.6651 2.79069 13.7865 2.9331 13.8406L6.00533 15.014L7.17903 18.0866C7.2335 18.229 7.35491 18.3333 7.50421 18.3651C7.53571 18.3717 7.56753 18.375 7.59871 18.375C7.71618 18.375 7.82971 18.3287 7.91535 18.2434L8.41738 17.7414L8.58997 14.4956L12.0865 11.3L15.5715 17.6105C15.6686 17.7867 15.8386 17.9038 16.0378 17.932C16.2369 17.9596 16.4328 17.8946 16.5749 17.7525L17.1163 17.2115C17.2695 17.0582 17.3335 16.8403 17.2876 16.6284L16.7032 13.943L17.4589 13.1877C17.597 13.0495 17.6731 12.8658 17.6731 12.6702C17.6731 12.4746 17.597 12.2909 17.4589 12.1528C17.1734 11.8679 16.7098 11.8676 16.4243 12.1528L16.3334 12.2436L16.0509 10.9449L16.6048 10.391C16.7429 10.2529 16.819 10.0692 16.819 9.8736C16.819 9.67803 16.7429 9.49428 16.6051 9.35647C16.3639 9.1153 15.9659 9.08478 15.685 9.26427L15.4461 8.16669L17.2768 6.33608L17.2761 6.33674Z" fill="#103DDE"/>
</svg>
