<svg width="268" height="44" viewBox="0 0 268 44" fill="none" xmlns="http://www.w3.org/2000/svg">
<circle cx="5" cy="34" r="4.5" stroke="#959595"/>
<circle cx="5" cy="34" r="3" fill="#959595"/>
<circle cx="258" cy="34" r="4.5" stroke="#959595"/>
<circle cx="258" cy="34" r="3" fill="#959595"/>
<line x1="18" y1="34.5" x2="245" y2="34.5" stroke="#999999" stroke-dasharray="6 6"/>
<circle cx="131" cy="34" r="9.5" fill="white" stroke="#959595"/>
<circle cx="131" cy="34" r="6" fill="#959595"/>
<path d="M265.273 6.36459H262.546V2.72794H249.818C248.818 2.72794 248 3.54709 248 4.54626V14.5462H249.818C249.818 16.0554 251.037 17.2721 252.545 17.2721C254.055 17.2721 255.273 16.0546 255.273 14.5462H260.727C260.727 16.0554 261.945 17.2721 263.454 17.2721C264.963 17.2721 266.181 16.0546 266.181 14.5462H268V10.0004L265.273 6.36459ZM252.545 15.9104C251.791 15.9104 251.182 15.3004 251.182 14.5462C251.182 13.7912 251.79 13.1821 252.545 13.1821C253.3 13.1821 253.909 13.7904 253.909 14.5462C253.909 15.2996 253.3 15.9104 252.545 15.9104ZM264.818 7.72793L266.6 10.0004H262.545V7.72793H264.818ZM263.455 15.9104C262.7 15.9104 262.091 15.3004 262.091 14.5462C262.091 13.7912 262.699 13.1821 263.455 13.1821C264.209 13.1821 264.818 13.7904 264.818 14.5462C264.818 15.2996 264.209 15.9104 263.455 15.9104Z" fill="#959595"/>
</svg>
