<svg width="263" height="44" viewBox="0 0 263 44" fill="none" xmlns="http://www.w3.org/2000/svg">
<circle cx="5" cy="34" r="4.5" stroke="#103DDE"/>
<circle cx="5" cy="34" r="3" fill="#103DDE"/>
<circle cx="258" cy="34" r="4.5" stroke="#103DDE"/>
<circle cx="258" cy="34" r="3" fill="#103DDE"/>
<line x1="18" y1="34.5" x2="245" y2="34.5" stroke="#999999" stroke-dasharray="6 6"/>
<circle cx="131" cy="34" r="9.5" fill="white" stroke="#103DDE"/>
<circle cx="131" cy="34" r="6" fill="#103DDE"/>
<path d="M138.273 6.36459H135.546V2.72794H122.818C121.818 2.72794 121 3.54709 121 4.54626V14.5462H122.818C122.818 16.0554 124.037 17.2721 125.545 17.2721C127.055 17.2721 128.273 16.0546 128.273 14.5462H133.727C133.727 16.0554 134.945 17.2721 136.454 17.2721C137.963 17.2721 139.181 16.0546 139.181 14.5462H141V10.0004L138.273 6.36459ZM125.545 15.9104C124.791 15.9104 124.182 15.3004 124.182 14.5462C124.182 13.7912 124.79 13.1821 125.545 13.1821C126.3 13.1821 126.909 13.7904 126.909 14.5462C126.909 15.2996 126.3 15.9104 125.545 15.9104ZM137.818 7.72793L139.6 10.0004H135.545V7.72793H137.818ZM136.455 15.9104C135.7 15.9104 135.091 15.3004 135.091 14.5462C135.091 13.7912 135.699 13.1821 136.455 13.1821C137.209 13.1821 137.818 13.7904 137.818 14.5462C137.818 15.2996 137.209 15.9104 136.455 15.9104Z" fill="#103DDE"/>
</svg>
