<svg width="20" height="16" viewBox="0 0 20 16" fill="none" xmlns="http://www.w3.org/2000/svg">
<g clip-path="url(#clip0_1215_3966)">
<path d="M15.021 15.7925C16.0608 15.7925 16.9038 14.9833 16.9038 13.985C16.9038 12.9868 16.0608 12.1775 15.021 12.1775C13.9811 12.1775 13.1382 12.9868 13.1382 13.985C13.1382 14.9833 13.9811 15.7925 15.021 15.7925Z" fill="#103DDE"/>
<path d="M5.87558 15.0479C6.48389 14.2383 6.29338 13.1086 5.45007 12.5246C4.60675 11.9407 3.42997 12.1236 2.82166 12.9331C2.21335 13.7427 2.40386 14.8724 3.24718 15.4564C4.09049 16.0404 5.26727 15.8575 5.87558 15.0479Z" fill="#103DDE"/>
<path d="M11.9661 0.769989C11.9661 0.459339 11.7038 0.207489 11.3802 0.207489H0.585938C0.262344 0.207489 0 0.459339 0 0.769989V8.64248H11.9661V0.769989Z" fill="#103DDE"/>
<path d="M0 13.4225C0 13.7331 0.262344 13.985 0.585938 13.985H1.29688C1.29688 12.368 2.66719 11.0525 4.35156 11.0525C6.03594 11.0525 7.40625 12.368 7.40625 13.985H11.3802C11.7038 13.985 11.9661 13.7331 11.9661 13.4225V9.76749H0V13.4225Z" fill="#103DDE"/>
<path d="M16.2344 3.25787V7.65239L20 9.45989V7.3975C20 5.26525 18.3504 3.5314 16.2344 3.25787Z" fill="#103DDE"/>
<path d="M15.0627 7.99998V3.21997H13.7241C13.4005 3.21997 13.1382 3.47182 13.1382 3.78247V11.6783C13.6574 11.2868 14.311 11.0525 15.021 11.0525C16.7054 11.0525 18.0757 12.368 18.0757 13.985H19.4142C19.7378 13.985 20.0002 13.7331 20.0002 13.4225V10.7176L15.3866 8.50312C15.1881 8.4078 15.0627 8.21306 15.0627 7.99998Z" fill="#103DDE"/>
</g>
<defs>
<clipPath id="clip0_1215_3966">
<rect width="20" height="16" fill="white"/>
</clipPath>
</defs>
</svg>
