<svg width="20" height="16" viewBox="0 0 20 16" fill="none" xmlns="http://www.w3.org/2000/svg">
<path d="M19.7974 9.3772L15.1502 4.79542V1.77384C15.1502 1.39713 14.8404 1.09206 14.4587 1.09206C14.0763 1.09206 13.7668 1.39713 13.7668 1.77384V3.43219L10.4885 0.199709C10.2191 -0.0665696 9.78087 -0.0665696 9.51147 0.199709L0.202561 9.3772C-0.0675204 9.6438 -0.0675204 10.0749 0.202561 10.3412C0.472307 10.6074 0.910222 10.6074 1.1803 10.3412L9.99983 1.6455L18.8197 10.3412C18.9546 10.4731 19.1325 10.5415 19.3091 10.5415C19.4846 10.5415 19.6626 10.4748 19.7974 10.3412C20.0675 10.0742 20.0675 9.64347 19.7974 9.3772Z" fill="#103DDE"/>
<path d="M17.8188 10.1595L10.4886 2.9318C10.3591 2.80414 10.1832 2.73218 9.99951 2.73218C9.81621 2.73218 9.6403 2.80414 9.51081 2.9318L2.1806 10.1595C2.08273 10.255 2.0168 10.378 1.99057 10.5116C1.97005 10.6157 1.95996 10.7215 1.95996 10.824V14.3516C1.95996 15.2599 2.70966 16 3.63124 16H7.20923C7.67271 16 8.11971 15.807 8.43519 15.4698C8.72243 15.1637 8.88051 14.7668 8.88051 14.3513V11.7608C8.88051 11.1321 9.36921 10.6068 10.0005 10.5478C10.6322 10.6068 11.1209 11.1321 11.1209 11.7608V14.3513C11.1209 14.7664 11.2796 15.1637 11.5662 15.4698C11.8817 15.807 12.3293 16 12.7925 16H16.3705C17.2921 16 18.0424 15.2609 18.0424 14.3513V10.825C18.0424 10.7215 18.032 10.6161 18.0115 10.5129C17.9842 10.378 17.917 10.255 17.8188 10.1595Z" fill="#103DDE"/>
</svg>
