<svg width="24" height="24" viewBox="0 0 24 24" fill="none" xmlns="http://www.w3.org/2000/svg">
<path fill-rule="evenodd" clip-rule="evenodd" d="M6.00195 0C2.68824 0 0.00195312 2.68629 0.00195312 6V18C0.00195312 21.3137 2.68824 24 6.00195 24H18.002C21.3157 24 24.002 21.3137 24.002 18V6C24.002 2.68629 21.3157 0 18.002 0H6.00195ZM19.7402 7.13245C19.7876 6.86801 19.69 6.59838 19.4842 6.42562C19.2785 6.25285 18.996 6.20335 18.7438 6.29584L3.74376 11.7958C3.41978 11.9146 3.21867 12.2392 3.25647 12.5822C3.29426 12.9251 3.56122 13.1981 3.90329 13.2435L8.77827 13.8904V17.2667C8.77827 17.5656 8.95576 17.8359 9.23001 17.9548C9.50426 18.0737 9.82292 18.0183 10.041 17.814L12.1817 15.8084L16.626 18.633C16.8369 18.767 17.1008 18.7872 17.3297 18.6868C17.5585 18.5863 17.7223 18.3785 17.7665 18.1325L19.7402 7.13245ZM10.8745 14.9776L10.2783 14.5987V15.5363L10.8745 14.9776ZM12.4813 14.2215C12.4906 14.2271 12.4998 14.233 12.509 14.2391L16.4874 16.7676L17.9553 8.58642L10.9093 13.2224L12.4813 14.2215ZM7.11671 12.1567L13.1776 9.93442L9.34967 12.4531L7.11671 12.1567Z" fill="white"/>
</svg>
