<svg width="24" height="24" viewBox="0 0 24 24" fill="none" xmlns="http://www.w3.org/2000/svg">
<g clip-path="url(#clip0_552_4762)">
<path fill-rule="evenodd" clip-rule="evenodd" d="M6.00195 0C2.68824 0 0.00195312 2.68629 0.00195312 6V18C0.00195312 21.3137 2.68824 24 6.00195 24H9.67754V13.4307H7.00195V10.4888H9.67754V9.9635C9.67754 7.58199 10.313 5.79585 11.5839 4.60509C12.8548 3.39098 14.6608 2.86565 17.002 3.02909V5.97096C14.0588 5.71413 12.5872 7.04498 12.5872 9.9635V10.4888H17.002V13.4307H12.5872V24H18.002C21.3157 24 24.002 21.3137 24.002 18V6C24.002 2.68629 21.3157 0 18.002 0H6.00195Z" fill="white"/>
</g>
<defs>
<clipPath id="clip0_552_4762">
<rect width="24" height="24" fill="white" transform="translate(0.00195312)"/>
</clipPath>
</defs>
</svg>
