<svg width="24" height="24" viewBox="0 0 24 24" fill="none" xmlns="http://www.w3.org/2000/svg">
<path d="M15.0321 6.01028H8.96937C8.58084 6.0101 8.19609 6.08647 7.83708 6.23503C7.47808 6.38359 7.15186 6.60143 6.87706 6.8761C6.60227 7.15076 6.38428 7.47688 6.23556 7.83582C6.08683 8.19476 6.01028 8.57948 6.01028 8.96801V15.0307C6.0101 15.4194 6.08652 15.8042 6.23516 16.1633C6.38381 16.5224 6.60177 16.8487 6.87658 17.1235C7.15139 17.3983 7.47767 17.6163 7.83677 17.7649C8.19586 17.9136 8.58073 17.99 8.96937 17.9898H15.0321C15.4207 17.99 15.8056 17.9136 16.1647 17.7649C16.5238 17.6163 16.8501 17.3983 17.1249 17.1235C17.3997 16.8487 17.6177 16.5224 17.7663 16.1633C17.915 15.8042 17.9914 15.4194 17.9912 15.0307V8.96801C17.9912 8.57948 17.9146 8.19476 17.7659 7.83582C17.6172 7.47688 17.3992 7.15076 17.1244 6.8761C16.8496 6.60143 16.5234 6.38359 16.1644 6.23503C15.8054 6.08647 15.4206 6.0101 15.0321 6.01028ZM12.0007 15.8803C11.2334 15.8803 10.4834 15.6528 9.84538 15.2265C9.20739 14.8002 8.71014 14.1943 8.4165 13.4854C8.12287 12.7765 8.04604 11.9964 8.19573 11.2439C8.34543 10.4913 8.71492 9.80005 9.25748 9.25748C9.80005 8.71492 10.4913 8.34543 11.2439 8.19573C11.9964 8.04604 12.7765 8.12287 13.4854 8.4165C14.1943 8.71014 14.8002 9.20739 15.2265 9.84538C15.6528 10.4834 15.8803 11.2334 15.8803 12.0007C15.8788 13.0292 15.4696 14.0152 14.7424 14.7424C14.0152 15.4696 13.0292 15.8788 12.0007 15.8803ZM15.9021 9.07846C15.7133 9.07846 15.5288 9.02248 15.3718 8.91759C15.2148 8.81271 15.0925 8.66363 15.0202 8.48921C14.948 8.31479 14.9291 8.12286 14.9659 7.93769C15.0027 7.75253 15.0936 7.58245 15.2271 7.44895C15.3606 7.31546 15.5307 7.22454 15.7159 7.18771C15.901 7.15088 16.093 7.16979 16.2674 7.24203C16.4418 7.31428 16.5909 7.43663 16.6958 7.5936C16.8007 7.75057 16.8566 7.93513 16.8566 8.12392C16.8566 8.37708 16.7561 8.61987 16.5771 8.79888C16.3981 8.97789 16.1553 9.07846 15.9021 9.07846ZM12.0007 9.62937C11.5317 9.62937 11.0732 9.76845 10.6833 10.029C10.2933 10.2896 9.98937 10.6599 9.80988 11.0933C9.6304 11.5266 9.58344 12.0034 9.67494 12.4634C9.76644 12.9234 9.99229 13.3459 10.3239 13.6775C10.6556 14.0092 11.0781 14.235 11.5381 14.3265C11.9981 14.418 12.4749 14.3711 12.9082 14.1916C13.3415 14.0121 13.7119 13.7082 13.9725 13.3182C14.233 12.9282 14.3721 12.4697 14.3721 12.0007C14.3721 11.3718 14.1223 10.7686 13.6775 10.3239C13.2328 9.87921 12.6297 9.62937 12.0007 9.62937ZM15.0321 6.01028H8.96937C8.58084 6.0101 8.19609 6.08647 7.83708 6.23503C7.47808 6.38359 7.15186 6.60143 6.87706 6.8761C6.60227 7.15076 6.38428 7.47688 6.23556 7.83582C6.08683 8.19476 6.01028 8.57948 6.01028 8.96801V15.0307C6.0101 15.4194 6.08652 15.8042 6.23516 16.1633C6.38381 16.5224 6.60177 16.8487 6.87658 17.1235C7.15139 17.3983 7.47767 17.6163 7.83677 17.7649C8.19586 17.9136 8.58073 17.99 8.96937 17.9898H15.0321C15.4207 17.99 15.8056 17.9136 16.1647 17.7649C16.5238 17.6163 16.8501 17.3983 17.1249 17.1235C17.3997 16.8487 17.6177 16.5224 17.7663 16.1633C17.915 15.8042 17.9914 15.4194 17.9912 15.0307V8.96801C17.9912 8.57948 17.9146 8.19476 17.7659 7.83582C17.6172 7.47688 17.3992 7.15076 17.1244 6.8761C16.8496 6.60143 16.5234 6.38359 16.1644 6.23503C15.8054 6.08647 15.4206 6.0101 15.0321 6.01028ZM12.0007 15.8803C11.2334 15.8803 10.4834 15.6528 9.84538 15.2265C9.20739 14.8002 8.71014 14.1943 8.4165 13.4854C8.12287 12.7765 8.04604 11.9964 8.19573 11.2439C8.34543 10.4913 8.71492 9.80005 9.25748 9.25748C9.80005 8.71492 10.4913 8.34543 11.2439 8.19573C11.9964 8.04604 12.7765 8.12287 13.4854 8.4165C14.1943 8.71014 14.8002 9.20739 15.2265 9.84538C15.6528 10.4834 15.8803 11.2334 15.8803 12.0007C15.8788 13.0292 15.4696 14.0152 14.7424 14.7424C14.0152 15.4696 13.0292 15.8788 12.0007 15.8803ZM15.9021 9.07846C15.7133 9.07846 15.5288 9.02248 15.3718 8.91759C15.2148 8.81271 15.0925 8.66363 15.0202 8.48921C14.948 8.31479 14.9291 8.12286 14.9659 7.93769C15.0027 7.75253 15.0936 7.58245 15.2271 7.44895C15.3606 7.31546 15.5307 7.22454 15.7159 7.18771C15.901 7.15088 16.093 7.16979 16.2674 7.24203C16.4418 7.31428 16.5909 7.43663 16.6958 7.5936C16.8007 7.75057 16.8566 7.93513 16.8566 8.12392C16.8566 8.37708 16.7561 8.61987 16.5771 8.79888C16.3981 8.97789 16.1553 9.07846 15.9021 9.07846ZM12.0007 9.62937C11.5317 9.62937 11.0732 9.76845 10.6833 10.029C10.2933 10.2896 9.98937 10.6599 9.80988 11.0933C9.6304 11.5266 9.58344 12.0034 9.67494 12.4634C9.76644 12.9234 9.99229 13.3459 10.3239 13.6775C10.6556 14.0092 11.0781 14.235 11.5381 14.3265C11.9981 14.418 12.4749 14.3711 12.9082 14.1916C13.3415 14.0121 13.7119 13.7082 13.9725 13.3182C14.233 12.9282 14.3721 12.4697 14.3721 12.0007C14.3721 11.3718 14.1223 10.7686 13.6775 10.3239C13.2328 9.87921 12.6297 9.62937 12.0007 9.62937ZM23.5916 4.2921C23.4854 3.29862 23.042 2.37151 22.3354 1.66513C21.6288 0.958753 20.7015 0.51573 19.708 0.409826C14.5862 -0.136609 9.42075 -0.136609 4.29892 0.409826C3.30442 0.514559 2.37589 0.957064 1.66816 1.66355C0.960438 2.37003 0.516304 3.29779 0.409826 4.2921C-0.136609 9.41393 -0.136609 14.5794 0.409826 19.7012C0.514321 20.6961 0.956894 21.6252 1.66368 22.3332C2.37046 23.0412 3.2987 23.4854 4.29346 23.5916C9.41515 24.1408 14.5809 24.1408 19.7026 23.5916C20.6975 23.4868 21.6263 23.0439 22.3341 22.3369C23.0419 21.6298 23.4858 20.7014 23.5916 19.7066C24.1385 14.583 24.1385 9.41573 23.5916 4.2921ZM19.5007 15.0307C19.5 16.2158 19.029 17.3521 18.1912 18.1902C17.3534 19.0283 16.2172 19.4997 15.0321 19.5007H8.96937C7.78442 19.4993 6.64844 19.0278 5.81068 18.1898C4.97292 17.3518 4.50182 16.2157 4.50074 15.0307V8.96801C4.50218 7.78342 4.97349 6.64778 5.81125 5.81028C6.649 4.97278 7.78478 4.50182 8.96937 4.50074H15.0321C16.2167 4.50182 17.3525 4.97278 18.1902 5.81028C19.028 6.64778 19.4993 7.78342 19.5007 8.96801V15.0307ZM15.0321 6.01028H8.96937C8.58084 6.0101 8.19609 6.08647 7.83708 6.23503C7.47808 6.38359 7.15186 6.60143 6.87706 6.8761C6.60227 7.15076 6.38428 7.47688 6.23556 7.83582C6.08683 8.19476 6.01028 8.57948 6.01028 8.96801V15.0307C6.0101 15.4194 6.08652 15.8042 6.23516 16.1633C6.38381 16.5224 6.60177 16.8487 6.87658 17.1235C7.15139 17.3983 7.47767 17.6163 7.83677 17.7649C8.19586 17.9136 8.58073 17.99 8.96937 17.9898H15.0321C15.4207 17.99 15.8056 17.9136 16.1647 17.7649C16.5238 17.6163 16.8501 17.3983 17.1249 17.1235C17.3997 16.8487 17.6177 16.5224 17.7663 16.1633C17.915 15.8042 17.9914 15.4194 17.9912 15.0307V8.96801C17.9912 8.57948 17.9146 8.19476 17.7659 7.83582C17.6172 7.47688 17.3992 7.15076 17.1244 6.8761C16.8496 6.60143 16.5234 6.38359 16.1644 6.23503C15.8054 6.08647 15.4206 6.0101 15.0321 6.01028ZM12.0007 15.8803C11.2334 15.8803 10.4834 15.6528 9.84538 15.2265C9.20739 14.8002 8.71014 14.1943 8.4165 13.4854C8.12287 12.7765 8.04604 11.9964 8.19573 11.2439C8.34543 10.4913 8.71492 9.80005 9.25748 9.25748C9.80005 8.71492 10.4913 8.34543 11.2439 8.19573C11.9964 8.04604 12.7765 8.12287 13.4854 8.4165C14.1943 8.71014 14.8002 9.20739 15.2265 9.84538C15.6528 10.4834 15.8803 11.2334 15.8803 12.0007C15.8788 13.0292 15.4696 14.0152 14.7424 14.7424C14.0152 15.4696 13.0292 15.8788 12.0007 15.8803ZM15.9021 9.07846C15.7133 9.07846 15.5288 9.02248 15.3718 8.91759C15.2148 8.81271 15.0925 8.66363 15.0202 8.48921C14.948 8.31479 14.9291 8.12286 14.9659 7.93769C15.0027 7.75253 15.0936 7.58245 15.2271 7.44895C15.3606 7.31546 15.5307 7.22454 15.7159 7.18771C15.901 7.15088 16.093 7.16979 16.2674 7.24203C16.4418 7.31428 16.5909 7.43663 16.6958 7.5936C16.8007 7.75057 16.8566 7.93513 16.8566 8.12392C16.8566 8.37708 16.7561 8.61987 16.5771 8.79888C16.3981 8.97789 16.1553 9.07846 15.9021 9.07846ZM12.0007 9.62937C11.5317 9.62937 11.0732 9.76845 10.6833 10.029C10.2933 10.2896 9.98937 10.6599 9.80988 11.0933C9.6304 11.5266 9.58344 12.0034 9.67494 12.4634C9.76644 12.9234 9.99229 13.3459 10.3239 13.6775C10.6556 14.0092 11.0781 14.235 11.5381 14.3265C11.9981 14.418 12.4749 14.3711 12.9082 14.1916C13.3415 14.0121 13.7119 13.7082 13.9725 13.3182C14.233 12.9282 14.3721 12.4697 14.3721 12.0007C14.3721 11.3718 14.1223 10.7686 13.6775 10.3239C13.2328 9.87921 12.6297 9.62937 12.0007 9.62937Z" fill="white"/>
</svg>
