<svg width="19" height="18" viewBox="0 0 19 18" fill="none" xmlns="http://www.w3.org/2000/svg">
<path d="M15.8799 2.69111C15.8799 2.69111 17.2812 2.14466 17.164 3.47166C17.1254 4.01811 16.7752 5.93089 16.5025 7.99948L15.5683 14.1277C15.5683 14.1277 15.4904 15.0255 14.7895 15.1817C14.0891 15.3375 13.038 14.6352 12.8432 14.479C12.6874 14.3618 9.92373 12.6052 8.95057 11.7468C8.67788 11.5123 8.36624 11.0441 8.98953 10.4977L13.0766 6.59421C13.5437 6.12602 14.0108 5.03312 12.0645 6.36012L6.61434 10.0681C6.61434 10.0681 5.99142 10.4587 4.82384 10.1074L2.29319 9.32649C2.29319 9.32649 1.35899 8.74108 2.95507 8.15566C6.84807 6.32116 11.6363 4.4477 15.8792 2.69111H15.8799Z" fill="#767676"/>
</svg>
