<svg width="559" height="79" viewBox="0 0 559 79" fill="none" xmlns="http://www.w3.org/2000/svg">
<path d="M553.187 3.81353C554 3.77301 554.813 3.91867 555.566 4.24017C556.319 4.56166 556.995 5.0511 557.545 5.67369C558.095 6.29628 558.506 7.03674 558.748 7.84246C558.991 8.64818 559.059 9.49937 558.949 10.3355C558.747 12.1342 557.914 13.7933 556.609 14.9973C555.303 16.2012 553.616 16.866 551.868 16.8652C551.053 16.9055 550.24 16.7596 549.485 16.4377C548.731 16.1159 548.054 15.6261 547.503 15.0029C546.952 14.3798 546.539 13.6387 546.295 12.8321C546.051 12.0255 545.982 11.1731 546.091 10.3355C546.298 8.53698 547.135 6.87952 548.442 5.67741C549.75 4.4753 551.438 3.81209 553.187 3.81353ZM552.068 15.369C553.411 15.3657 554.705 14.8535 555.708 13.929C556.711 13.0045 557.353 11.7318 557.512 10.3509C557.601 9.70477 557.551 9.04615 557.366 8.42235C557.18 7.79855 556.864 7.22505 556.439 6.74307C556.014 6.26109 555.492 5.88259 554.909 5.63477C554.326 5.38694 553.697 5.27594 553.068 5.30975C551.715 5.30411 550.408 5.81505 549.395 6.74497C548.383 7.67489 547.737 8.9586 547.58 10.3509C547.497 10.9985 547.554 11.6571 547.745 12.2797C547.936 12.9023 548.257 13.4735 548.686 13.9527C549.114 14.4319 549.64 14.8073 550.224 15.0521C550.809 15.2969 551.439 15.4051 552.068 15.369ZM555.031 12.6374C554.678 13.0212 554.25 13.3234 553.777 13.5244C553.304 13.7253 552.794 13.8205 552.283 13.8037C550.128 13.8037 548.832 12.3919 549.046 10.2742C549.14 9.30351 549.58 8.40401 550.28 7.75134C550.98 7.09868 551.89 6.73973 552.831 6.74459C553.298 6.70632 553.768 6.76759 554.211 6.92463C554.654 7.08167 555.062 7.33115 555.408 7.65768L554.475 9.01579C554.272 8.79486 554.025 8.62215 553.752 8.50955C553.478 8.39696 553.184 8.34716 552.89 8.36359C552.383 8.36639 551.895 8.56288 551.519 8.91543C551.144 9.26797 550.906 9.75177 550.854 10.2742C550.819 10.5229 550.838 10.7765 550.91 11.0165C550.982 11.2565 551.105 11.4768 551.27 11.6614C551.434 11.8459 551.637 11.99 551.862 12.0832C552.087 12.1764 552.33 12.2164 552.572 12.2001C552.908 12.1926 553.24 12.1161 553.547 11.9752C553.855 11.8343 554.132 11.6317 554.364 11.3791L555.031 12.6374Z" fill="#131313"/>
<path d="M1.83675 2.11771L0 20.1722H22.5224L16.8122 76.4763H35.8536L41.5638 20.1722H64.1158L65.9451 2.11771H1.83675Z" fill="#131313"/>
<path d="M113.716 0C90.1267 0 71.8999 18.0545 69.7447 39.3085C67.5895 60.5626 82.1501 78.6094 105.739 78.6094C129.328 78.6094 147.569 60.5549 149.725 39.2932C151.88 18.0314 137.319 0 113.716 0ZM107.576 60.5549C95.7776 60.5549 88.438 52.0533 89.7267 39.3085C91.0154 26.5638 100.095 18.0545 111.886 18.0545C123.677 18.0545 131.024 26.5561 129.728 39.2932C128.432 52.0303 119.366 60.5549 107.576 60.5549Z" fill="#131313"/>
<path d="M161.137 2.11771L159.308 20.1722H181.86L176.149 76.4763H195.124L200.834 20.1722H223.386L225.223 2.11771H161.137Z" fill="#131313"/>
<path d="M283.459 50.4496C291.606 46.1988 298.96 39.3085 300.093 28.1444C301.574 13.8113 291.443 2.11771 274.016 2.11771H238.118L230.578 76.4763H249.553L255.263 20.1722H271.675C277.815 20.1722 281.029 23.8935 280.6 28.1444C280.17 32.3952 276.201 36.1166 270.053 36.1166H256.093L264.632 54.171L275.186 76.4763H295.694L283.459 50.4496Z" fill="#131313"/>
<path d="M448.898 2.11771L445.121 39.2932L445.684 48.846H444.677L424.28 2.11771H401.202L393.655 76.4763H412.637L416.407 39.2932L415.83 29.7327H416.866L437.271 76.4763H460.334L467.858 2.11771H448.898Z" fill="#131313"/>
<path d="M515.038 30.3696C507.632 28.5818 501.892 26.5332 502.329 22.3054C502.595 19.6429 505.291 17.0034 512.601 17.0034C517.83 17.0034 520.555 18.584 522.029 20.1723C522.84 21.079 523.429 22.1734 523.748 23.3642H543.241C542.819 19.1853 541.429 15.1737 539.19 11.6707C535.479 5.83922 528.184 0.000106812 514.297 0.000106812C495.426 0.000106812 483.435 11.0492 482.191 23.3642C480.821 36.8686 490.879 41.9481 501.321 45.048C511.69 47.9023 522.059 49.5981 521.503 55.2453C521.17 58.537 517.8 61.6139 510.105 61.6139C503.943 61.6139 500.373 59.3811 498.448 57.1559C497.326 55.841 496.535 54.2597 496.144 52.5521H476.703C477.44 57.2108 479.119 61.6557 481.628 65.5962C485.894 72.0721 493.752 78.5481 508.409 78.5481C528.813 78.5481 540.352 66.8622 541.648 54.1097C543.344 37.3981 527.029 33.4695 515.038 30.3696Z" fill="#131313"/>
<path d="M363.949 2.11771H338.62L306.677 76.4763H325.77L330.777 64.4835L338.427 45.8842L349.137 20.3026L354.832 45.8842L358.98 64.4835L361.609 76.4763H382.235L363.949 2.11771Z" fill="#131313"/>
</svg>
