<svg width="52" height="52" viewBox="0 0 52 52" fill="none" xmlns="http://www.w3.org/2000/svg">
<circle cx="26" cy="26" r="26" fill="#103DDE"/>
<path d="M19.0157 16.375C19.0157 14.9905 19.4263 13.6372 20.1955 12.486C20.9646 11.3349 22.0579 10.4377 23.337 9.90785C24.616 9.37803 26.0235 9.23941 27.3814 9.50951C28.7392 9.7796 29.9865 10.4463 30.9655 11.4253C31.9445 12.4042 32.6112 13.6515 32.8812 15.0094C33.1513 16.3672 33.0127 17.7747 32.4829 19.0538C31.9531 20.3329 31.0559 21.4261 29.9047 22.1953C28.7536 22.9645 27.4002 23.375 26.0157 23.375C24.1592 23.375 22.3788 22.6375 21.066 21.3248C19.7532 20.012 19.0157 18.2315 19.0157 16.375ZM29.5 26.875H22.5C15.395 26.875 12.875 32.0778 12.875 36.5333C12.875 40.525 14.9942 42.625 19 42.625H33C37.011 42.625 39.125 40.525 39.125 36.5333C39.125 32.0778 36.605 26.875 29.5 26.875Z" fill="white"/>
</svg>
